<?xml version="1.0" encoding="UTF-8" standalone="no"?>
<!-- Created with Inkscape (http://www.inkscape.org/) -->

<svg
   xmlns:dc="http://purl.org/dc/elements/1.1/"
   xmlns:cc="http://creativecommons.org/ns#"
   xmlns:rdf="http://www.w3.org/1999/02/22-rdf-syntax-ns#"
   xmlns:svg="http://www.w3.org/2000/svg"
   xmlns="http://www.w3.org/2000/svg"
   xmlns:sodipodi="http://sodipodi.sourceforge.net/DTD/sodipodi-0.dtd"
   xmlns:inkscape="http://www.inkscape.org/namespaces/inkscape"
   width="251.19765mm"
   height="251.09871mm"
   viewBox="0 0 251.19765 251.09871"
   version="1.1"
   id="svg853"
   inkscape:version="0.92.3 (2405546, 2018-03-11)"
   sodipodi:docname="framework7.svg">
  <defs
     id="defs847" />
  <sodipodi:namedview
     id="base"
     pagecolor="#ffffff"
     bordercolor="#666666"
     borderopacity="1.0"
     inkscape:pageopacity="0.0"
     inkscape:pageshadow="2"
     inkscape:zoom="0.35"
     inkscape:cx="-103.78096"
     inkscape:cy="388.97507"
     inkscape:document-units="mm"
     inkscape:current-layer="layer1"
     showgrid="false"
     inkscape:window-width="1440"
     inkscape:window-height="845"
     inkscape:window-x="0"
     inkscape:window-y="27"
     inkscape:window-maximized="1" />
  <metadata
     id="metadata850">
    <rdf:RDF>
      <cc:Work
         rdf:about="">
        <dc:format>image/svg+xml</dc:format>
        <dc:type
           rdf:resource="http://purl.org/dc/dcmitype/StillImage" />
        <dc:title></dc:title>
      </cc:Work>
    </rdf:RDF>
  </metadata>
  <g
     inkscape:label="Layer 1"
     inkscape:groupmode="layer"
     id="layer1"
     transform="translate(-0.62240219,-0.65094488)">
    <path
       style="fill:#6c006c;fill-opacity:1;stroke-width:1.12295127"
       d="m 119.01889,251.56918 c -2.77929,-0.1859 -7.66163,-0.62497 -10.84968,-0.97554 l -5.79639,-0.63731 65.74943,-93.97879 c 36.1622,-51.6883 65.8995,-94.156863 66.08298,-94.374553 0.65056,-0.77211 8.69672,16.23497 11.30628,23.898 8.53115,25.051843 8.39957,57.380833 -0.33317,81.844123 -13.02507,36.48799 -41.03433,64.4972 -77.52228,77.52226 -13.30111,4.7481 -34.3961,7.65481 -48.63726,6.70181 z M 71.29347,239.00894 C 35.52373,221.6897 10.11113,188.48246 2.7013105,149.3779 -3.4727695,116.79494 4.3226405,80.459747 23.19442,53.857407 l 4.9789,-7.01842 h 97.17214 c 53.44465,0 97.00369,0.41975 96.7978,0.93288 -1.21712,3.03334 -137.577,196.670023 -138.49732,196.671933 -0.61766,10e-4 -6.17623,-2.44442 -12.35247,-5.43486 z M 50.51888,25.530456 C 61.2636,16.561232 83.51102,6.4518356 100.34353,2.8897886 c 14.10624,-2.98512496 37.84288,-2.98512496 51.94911,0 16.83247,3.562047 39.07994,13.6714434 49.82466,22.6406674 l 3.93033,3.280872 H 126.31807 46.58855 Z"
       id="path1409"
       inkscape:connector-curvature="0" />
  </g>
</svg>
