<?xml version="1.0" encoding="UTF-8" standalone="no"?>
<!-- Generator: Adobe Illustrator 15.0.1, SVG Export Plug-In . SVG Version: 6.00 Build 0)  -->

<svg
   xmlns:dc="http://purl.org/dc/elements/1.1/"
   xmlns:cc="http://creativecommons.org/ns#"
   xmlns:rdf="http://www.w3.org/1999/02/22-rdf-syntax-ns#"
   xmlns:svg="http://www.w3.org/2000/svg"
   xmlns="http://www.w3.org/2000/svg"
   xmlns:sodipodi="http://sodipodi.sourceforge.net/DTD/sodipodi-0.dtd"
   xmlns:inkscape="http://www.inkscape.org/namespaces/inkscape"
   version="1.1"
   x="0px"
   y="0px"
   width="301.88766"
   height="342.37289"
   viewBox="0 0 301.88767 342.37289"
   enable-background="new 0 0 2000 2000"
   xml:space="preserve"
   id="svg24"
   sodipodi:docname="html-5.svg"
   inkscape:version="0.92.3 (2405546, 2018-03-11)"><metadata
   id="metadata30"><rdf:RDF><cc:Work
       rdf:about=""><dc:format>image/svg+xml</dc:format><dc:type
         rdf:resource="http://purl.org/dc/dcmitype/StillImage" /><dc:title /></cc:Work></rdf:RDF></metadata><defs
   id="defs28" /><sodipodi:namedview
   pagecolor="#ffffff"
   bordercolor="#666666"
   borderopacity="1"
   objecttolerance="10"
   gridtolerance="10"
   guidetolerance="10"
   inkscape:pageopacity="0"
   inkscape:pageshadow="2"
   inkscape:window-width="1440"
   inkscape:window-height="845"
   id="namedview26"
   showgrid="false"
   inkscape:zoom="1.3350176"
   inkscape:cx="93.379163"
   inkscape:cy="115.59141"
   inkscape:window-x="0"
   inkscape:window-y="27"
   inkscape:window-maximized="1"
   inkscape:current-layer="svg24" />
<g
   id="Logo_artwork"
   transform="matrix(0.19020716,0,0,0.19020716,-39.263323,-19.020716)">
</g>
<g
   id="Guides_to_delete"
   transform="matrix(0.19020716,0,0,0.19020716,-39.263323,-19.020716)">
	<g
   id="g21">
		<g
   id="g19">
			<polygon
   points="350.867,1720.068 206.424,100 1793.576,100 1648.982,1719.811 999.033,1900 "
   id="polygon3"
   style="fill:#6c006c;fill-opacity:1" />
			<polygon
   points="1525.193,1616.666 1648.756,232.468 1000.001,232.468 1000.001,1762.27 "
   id="polygon5"
   style="fill:#800080" />
			<g
   id="g11">
				<polygon
   points="999.314,431.162 501.771,431.162 506.526,484.467 555.364,1032.019 1000.001,1032.019 1000.001,833.324 737.078,833.324 718.919,629.86 1000.001,629.86 1000.001,431.162 "
   id="polygon7"
   style="fill:#ebebeb" />
				<polygon
   points="564.238,1131.365 592.075,1443.34 999.081,1556.33 1000.001,1556.08 1000.001,1349.355 999.132,1349.585 777.844,1289.833 763.699,1131.365 656.17,1131.365 "
   id="polygon9"
   style="fill:#ebebeb" />
			</g>
			<g
   id="g17">
				<polygon
   points="999.314,1556.234 1406.651,1443.34 1409.639,1409.776 1456.33,886.683 1461.178,833.324 1407.633,833.324 999.314,833.324 999.314,1032.019 1243.985,1032.019 1220.921,1289.709 999.314,1349.523 "
   id="polygon13"
   style="fill:#ffffff" />
				<polygon
   points="1478.619,629.86 1479.258,629.86 1483.24,585.197 1492.297,484.467 1497.048,431.162 999.314,431.162 999.314,554.569 999.314,629.376 999.314,629.86 1478.619,629.86 "
   id="polygon15"
   style="fill:#ffffff" />
			</g>
		</g>
	</g>
</g>
</svg>