<?xml version="1.0" encoding="UTF-8" standalone="no"?>
<!-- Created with Inkscape (http://www.inkscape.org/) -->

<svg
   xmlns:dc="http://purl.org/dc/elements/1.1/"
   xmlns:cc="http://creativecommons.org/ns#"
   xmlns:rdf="http://www.w3.org/1999/02/22-rdf-syntax-ns#"
   xmlns:svg="http://www.w3.org/2000/svg"
   xmlns="http://www.w3.org/2000/svg"
   xmlns:sodipodi="http://sodipodi.sourceforge.net/DTD/sodipodi-0.dtd"
   xmlns:inkscape="http://www.inkscape.org/namespaces/inkscape"
   version="1.1"
   id="svg2"
   width="1130.5217"
   height="588.25262"
   viewBox="0 0 1130.5217 588.25262"
   sodipodi:docname="php.svg"
   inkscape:version="0.92.3 (2405546, 2018-03-11)">
  <metadata
     id="metadata8">
    <rdf:RDF>
      <cc:Work
         rdf:about="">
        <dc:format>image/svg+xml</dc:format>
        <dc:type
           rdf:resource="http://purl.org/dc/dcmitype/StillImage" />
        <dc:title />
      </cc:Work>
    </rdf:RDF>
  </metadata>
  <defs
     id="defs6" />
  <sodipodi:namedview
     pagecolor="#ffffff"
     bordercolor="#666666"
     borderopacity="1"
     objecttolerance="10"
     gridtolerance="10"
     guidetolerance="10"
     inkscape:pageopacity="0"
     inkscape:pageshadow="2"
     inkscape:window-width="1440"
     inkscape:window-height="845"
     id="namedview4"
     showgrid="false"
     inkscape:zoom="0.34570311"
     inkscape:cx="455.76959"
     inkscape:cy="247.47674"
     inkscape:window-x="0"
     inkscape:window-y="27"
     inkscape:window-maximized="1"
     inkscape:current-layer="svg2" />
  <path
     style="opacity:1;fill:#5f005f;fill-opacity:1;stroke:none;stroke-width:99.44932556;stroke-miterlimit:4;stroke-dasharray:none;stroke-opacity:1"
     d="M 478.65724,583.41839 C 410.37312,578.25058 306.52895,557.49687 253.35722,538.3911 166.56841,507.20608 78.560316,453.36311 44.891416,410.85266 12.956726,370.5318 0.27021648,337.66558 0.01014648,294.58128 -0.18542352,262.18166 2.3705465,249.56341 14.280406,224.13197 39.537156,170.20059 89.598376,123.77945 163.85152,85.436568 276.08087,27.483501 402.98031,0.13112059 560.22641,4.1058917e-4 899.31173,-0.28142941 1156.8483,144.57116 1128.369,319.55473 1106.7102,452.6314 904.11549,564.49139 649.68936,583.85128 c -78.18947,5.94966 -86.99067,5.92739 -171.03212,-0.4331 z m 257.8638,-35.99137 C 908.41066,517.71478 1044.6284,443.9049 1090.547,355.59744 c 18.2268,-35.05277 19.3177,-83.50921 2.7026,-120.04712 C 1054.5956,150.54729 934.16145,80.441848 765.67741,44.86855 452.96661,-21.156389 88.811666,80.014101 31.937706,248.71809 c -29.2329095,86.71294 24.2279,167.12794 154.649284,232.62129 145.12802,72.87851 360.7458,98.79014 549.93405,66.08764 z"
     id="path818"
     inkscape:connector-curvature="0" />
  <path
     style="opacity:1;fill:#5f005f;fill-opacity:1;stroke:none;stroke-width:99.44932556;stroke-miterlimit:4;stroke-dasharray:none;stroke-opacity:1"
     d="M 436.74454,577.99199 C 384.41954,571.28632 284.12023,548.12804 247.10605,534.20602 127.37758,489.17304 37.847886,420.50848 13.295126,354.88536 -32.578594,232.27683 58.032146,117.96318 256.6396,47.884266 468.67038,-26.931069 781.68058,-9.4147594 965.44098,87.549379 1080.0616,148.03086 1134.1908,221.5752 1127.2968,307.46008 1117.157,433.78109 942.07461,544.93138 704.09536,576.12773 c -65.4579,8.58077 -207.22737,9.56933 -267.35082,1.86426 z m 291.88272,-27.92823 c 175.08928,-28.99217 320.06004,-107.03231 363.71184,-195.79208 16.8507,-34.26339 17.3496,-89.53414 1.0852,-120.20945 C 1033.713,121.44445 865.32335,44.987931 634.45034,25.667261 422.78749,7.9541706 186.30153,70.336429 83.839826,170.91189 c -43.92955,43.12087 -57.80927,72.92782 -57.5871,123.66939 0.21382,48.83178 12.20707,74.23808 54.64662,115.76253 70.393604,68.8757 205.963424,124.48761 345.132614,141.57641 26.04952,3.19866 53.28309,6.83486 60.51906,8.08044 27.82448,4.78964 194.44537,-2.04995 242.07624,-9.9369 z"
     id="path820"
     inkscape:connector-curvature="0" />
  <path
     style="opacity:1;fill:#5f005f;fill-opacity:1;stroke:none;stroke-width:99.44932556;stroke-miterlimit:4;stroke-dasharray:none;stroke-opacity:1"
     d="m 179.31255,453.45922 c -1.44819,-2.34322 7.90567,-58.58647 20.78634,-124.98502 12.88066,-66.39853 24.94509,-131.08682 26.80981,-143.75173 l 3.39041,-23.02714 84.7101,2.38831 c 99.57422,2.80735 111.64451,6.90208 129.58387,43.95984 23.33076,48.19495 -0.68126,116.64065 -51.79378,147.63688 -28.68073,17.39289 -55.67334,23.10135 -109.23544,23.10135 -36.24644,0 -35.20724,-0.97349 -42.13244,39.46896 -5.92967,34.62864 -10.38135,39.46894 -36.30017,39.46894 -12.7521,0 -24.37052,-1.91717 -25.8187,-4.26039 z M 357.61638,324.01089 c 17.88619,-11.71947 33.94462,-46.88564 34.09358,-74.66108 0.17647,-32.90435 -12.30054,-41.19132 -65.37605,-43.42144 l -43.34401,-1.8212 -11.36788,57.07775 c -16.5554,83.12417 -18.93109,77.2872 30.29686,74.43744 27.38676,-1.58541 46.46637,-5.56299 55.6975,-11.61147 z"
     id="path822"
     inkscape:connector-curvature="0" />
  <path
     style="opacity:1;fill:#5f005f;fill-opacity:1;stroke:none;stroke-width:99.44932556;stroke-miterlimit:4;stroke-dasharray:none;stroke-opacity:1"
     d="m 462.00452,355.45901 c 1.80362,-13.15887 14.32116,-80.78634 27.81674,-150.28327 L 514.35869,78.817675 h 28.8542 28.85419 l -3.00993,15.04969 c -1.65548,8.277345 -4.57785,26.869175 -6.49418,41.315175 l -3.48423,26.26545 55.89384,2.85267 c 59.98881,3.06167 77.70667,9.67494 88.31844,32.96525 4.51112,9.90088 2.46288,30.65912 -9.44906,95.76278 l -15.20871,83.12175 -22.29822,1.61494 c -37.75968,2.73469 -38.31124,1.22435 -24.61311,-67.39652 20.12113,-100.79687 18.31967,-105.25054 -42.57289,-105.25054 -45.55652,0 -39.60722,-9.57868 -59.65169,96.04263 l -14.23125,74.98949 -28.27045,1.6169 -28.27043,1.61688 z"
     id="path824"
     inkscape:connector-curvature="0" />
  <path
     style="opacity:1;fill:#5f005f;fill-opacity:1;stroke:none;stroke-width:99.44932556;stroke-miterlimit:4;stroke-dasharray:none;stroke-opacity:1"
     d="m 692.08977,453.77272 c 0.16519,-2.17079 12.8239,-67.88659 28.13063,-146.03512 l 27.83043,-142.08822 83.99231,0.23468 c 95.13369,0.26582 111.96834,5.37779 129.79486,39.41328 13.91821,26.57354 8.8173,78.03751 -10.895,109.92141 -28.05021,45.37015 -70.6744,63.56296 -148.92256,63.56296 h -35.68335 l -5.69859,26.57167 c -3.13423,14.61441 -5.6986,30.06592 -5.6986,34.33666 0,4.27076 -6.07451,10.07455 -13.49891,12.8973 -15.90973,6.04888 -49.78301,6.86249 -49.35122,1.18538 z M 865.07888,327.46391 c 27.08861,-13.81283 38.82259,-33.32239 41.39007,-68.81746 2.06746,-28.58252 1.18338,-31.63612 -12.20948,-42.17094 -11.93653,-9.38928 -21.4224,-11.35719 -54.74493,-11.35719 h -40.30661 l -11.60897,59.56672 c -6.38492,32.76168 -11.60896,62.3634 -11.60896,65.78158 0,10.18241 67.70659,7.90037 89.08888,-3.00271 z"
     id="path826"
     inkscape:connector-curvature="0" />
</svg>
