<?xml version="1.0" encoding="UTF-8" standalone="no"?>
<!-- Created with Inkscape (http://www.inkscape.org/) -->

<svg
   xmlns:dc="http://purl.org/dc/elements/1.1/"
   xmlns:cc="http://creativecommons.org/ns#"
   xmlns:rdf="http://www.w3.org/1999/02/22-rdf-syntax-ns#"
   xmlns:svg="http://www.w3.org/2000/svg"
   xmlns="http://www.w3.org/2000/svg"
   xmlns:sodipodi="http://sodipodi.sourceforge.net/DTD/sodipodi-0.dtd"
   xmlns:inkscape="http://www.inkscape.org/namespaces/inkscape"
   version="1.1"
   id="svg2"
   xml:space="preserve"
   width="486.66666"
   height="299.39999"
   viewBox="0 0 486.66666 299.39999"
   sodipodi:docname="pug.svg"
   inkscape:version="0.92.3 (2405546, 2018-03-11)"><metadata
     id="metadata8"><rdf:RDF><cc:Work
         rdf:about=""><dc:format>image/svg+xml</dc:format><dc:type
           rdf:resource="http://purl.org/dc/dcmitype/StillImage" /><dc:title></dc:title></cc:Work></rdf:RDF></metadata><defs
     id="defs6" /><sodipodi:namedview
     pagecolor="#ffffff"
     bordercolor="#666666"
     borderopacity="1"
     objecttolerance="10"
     gridtolerance="10"
     guidetolerance="10"
     inkscape:pageopacity="0"
     inkscape:pageshadow="2"
     inkscape:window-width="1440"
     inkscape:window-height="845"
     id="namedview4"
     showgrid="false"
     inkscape:zoom="2.2294884"
     inkscape:cx="276.00091"
     inkscape:cy="86.584956"
     inkscape:window-x="0"
     inkscape:window-y="27"
     inkscape:window-maximized="1"
     inkscape:current-layer="g10" /><g
     id="g10"
     inkscape:groupmode="layer"
     inkscape:label="ink_ext_XXXXXX"
     transform="matrix(1.3333333,0,0,-1.3333333,0,299.4)"><path
       inkscape:connector-curvature="0"
       id="path14"
       style="fill:#ffffff;fill-opacity:1;fill-rule:nonzero;stroke:none;stroke-width:0.1"
       d="m 305.426,154.468 c -0.57,12.534 1.139,23.645 -4.558,33.046 -13.674,23.36 -47.86,37.034 -116.231,37.034 v -1.994 h -1.425 1.425 v 1.994 c -68.372,0 -104.2667,-13.674 -117.9409,-37.319 -5.4125,-9.686 -4.843,-20.512 -5.6977,-33.047 -0.5699,-9.97 -5.1277,-20.511 -3.1336,-31.906 2.279,-14.814 3.1336,-29.628 5.4125,-43.3022 C 64.9867,67.8641 80.3703,58.4629 81.7949,47.9219 85.7832,18.8641 115.98,5.475 184.352,5.475 V 3.19609 h -1.71 0.285 1.71 V 5.475 c 68.371,0 97.429,13.3891 101.132,42.4469 1.425,10.8261 15.669,19.9422 17.378,31.0519 2.279,13.6742 3.134,28.4882 5.413,43.3022 1.994,11.395 -2.564,22.22 -3.134,32.192" /><path
       inkscape:connector-curvature="0"
       id="path16"
       style="fill:#ffffff;fill-opacity:1;fill-rule:nonzero;stroke:none;stroke-width:0.1"
       d="m 183.497,144.212 c 12.25,-0.285 20.796,-7.977 28.773,-15.099 9.401,-8.261 25.354,-13.959 31.907,-21.081 6.552,-7.122 15.098,-14.2441 18.232,-25.3539 3.134,-11.1109 3.988,-25.3551 3.988,-29.0582 0,-3.7039 1.994,-2.8488 7.692,0 13.389,6.552 28.203,24.2153 28.203,24.2153 C 300.583,66.7238 286.054,56.7539 284.63,46.2129 281.211,17.1551 253.008,3.19609 183.212,3.19609 h -0.285 1.71" /><path
       inkscape:connector-curvature="0"
       id="path18"
       style="fill:#ffffff;fill-opacity:1;fill-rule:nonzero;stroke:none;stroke-width:0.1"
       d="m 228.508,166.432 c 2.564,-8.831 11.68,-38.743 -5.982,-28.773 0,0 7.407,-4.273 11.965,-20.511 4.843,-16.238 16.523,-18.232 16.523,-18.232 0,0 19.087,-3.7039 33.331,8.546 11.965,10.256 13.959,28.488 8.831,42.447 -5.128,13.675 -14.244,17.948 -27.633,20.796 -13.39,3.134 -40.168,5.698 -37.035,-4.273" /><path
       inkscape:connector-curvature="0"
       id="path20"
       style="fill:#5f005f;fill-opacity:1;fill-rule:nonzero;stroke:none;stroke-width:0.1"
       d="m 262.409,159.025 c 13.845,0 25.069,-11.223 25.069,-25.069 0,-13.845 -11.224,-25.069 -25.069,-25.069 -13.846,0 -25.07,11.224 -25.07,25.069 0,13.846 11.224,25.069 25.07,25.069" /><path
       inkscape:connector-curvature="0"
       id="path22"
       style="fill:#ffffff;fill-opacity:1;fill-rule:nonzero;stroke:none;stroke-width:0.1"
       d="m 255.857,151.619 c 3.618,0 6.552,-2.934 6.552,-6.553 0,-3.618 -2.934,-6.552 -6.552,-6.552 -3.619,0 -6.553,2.934 -6.553,6.552 0,3.619 2.934,6.553 6.553,6.553" /><path
       inkscape:connector-curvature="0"
       id="path24"
       style="fill:#ffffff;fill-opacity:1;fill-rule:nonzero;stroke:none;stroke-width:0.1"
       d="m 224.235,135.096 c 0,0 22.506,-15.384 34.755,-30.483 12.25,-15.0982 11.965,-17.947 11.965,-17.947 l -8.831,-3.9879 c 0,0 -12.535,23.6449 -27.918,32.4759 -15.669,8.831 -17.378,16.238 -17.378,16.238 l 7.407,3.704" /><path
       inkscape:connector-curvature="0"
       id="path26"
       style="fill:#ffffff;fill-opacity:1;fill-rule:nonzero;stroke:none;stroke-width:0.1"
       d="m 184.352,144.212 c -12.25,-0.285 -21.366,-7.977 -29.628,-15.099 -9.401,-8.261 -25.924,-13.959 -32.476,-21.081 -6.552,-7.122 -15.384,-14.2441 -18.517,-25.3539 -3.134,-11.1109 -4.2736,-25.3551 -4.2736,-29.0582 0,-3.7039 0.5696,-3.989 -7.6918,0 C 78.3762,59.8871 63.5625,77.8352 63.5625,77.8352 65.2719,66.7238 79.8008,56.7539 81.225,46.2129 85.2133,17.1551 113.417,3.19609 183.212,3.19609 h 0.285 1.14" /><path
       inkscape:connector-curvature="0"
       id="path28"
       style="fill:#5f005f;fill-opacity:1;fill-rule:nonzero;stroke:none;stroke-width:0.1"
       d="m 250.444,96.0672 c -13.674,16.8078 -35.61,32.4758 -66.092,32.4758 h -0.285 c -30.482,0 -52.418,-15.668 -66.092,-32.4758 C 103.731,78.6891 104.87,71.852 104.87,55.3289 c 0,-59.82499 21.081,-42.732 35.04,-50.13906 14.244,-7.12187 29.058,-4.842965 44.157,-4.842965 h 0.285 c 15.383,0 29.912,-1.993755 44.156,5.128125 13.959,7.1219 35.04,-10.54102 35.04,49.284 0.285,16.523 1.14,23.9301 -13.104,41.3082" /><path
       inkscape:connector-curvature="0"
       id="path34"
       style="fill:#800080;fill-opacity:1;fill-rule:nonzero;stroke:#800080;stroke-width:0.1"
       d="m 160.992,120.282 c -2.849,6.552 7.406,17.093 23.645,17.377 16.238,0 26.493,-10.54 23.645,-17.377 -2.849,-6.837 -13.105,-8.832 -23.645,-9.116 -10.256,0.284 -20.797,2.279 -23.645,9.116" /><path
       inkscape:connector-curvature="0"
       id="path40"
       style="fill:#5f005f;fill-opacity:1;fill-rule:nonzero;stroke:none;stroke-width:0.1"
       d="m 183.212,25.132 c -10.825,0 -21.366,3.418 -31.052,5.9821 -1.994,0.5699 -3.988,-0.8539 -5.982,-0.2852 -17.948,5.6981 -32.477,15.384 -41.308,27.634 0,-0.8551 0,-1.9938 0,-2.8488 0,-59.82504 21.081,-43.0172 35.04,-50.1391 14.244,-7.12188 29.058,-4.842969 44.157,-4.842969 h 0.285 c 15.383,0 29.912,-1.994141 44.156,5.128129 13.959,7.12184 35.04,-10.25625 35.04,49.56874 0,2.2789 0,4.5582 0.285,6.552 -8.261,-13.3887 -23.36,-23.9297 -42.162,-30.1969 -1.709,-0.5699 -5.698,0.8551 -7.407,0.5699 -10.256,-3.4187 -19.372,-7.1219 -31.052,-7.1219" /><path
       inkscape:connector-curvature="0"
       id="path46"
       style="fill:#ffffff;fill-opacity:1;fill-rule:nonzero;stroke:none;stroke-width:0.1"
       d="m 137.916,166.432 c -2.564,-8.831 -11.68,-38.743 5.983,-28.773 0,0 -7.407,-4.273 -11.965,-20.511 -4.558,-16.238 -16.523,-18.232 -16.523,-18.232 0,0 -19.0872,-3.7039 -33.3313,8.546 -11.9649,10.256 -13.9594,28.488 -8.8313,42.447 5.1278,13.959 14.2442,17.948 27.6336,20.796 13.389,3.134 39.883,5.698 37.034,-4.273" /><path
       inkscape:connector-curvature="0"
       id="path48"
       style="fill:#ffffff;fill-opacity:1;fill-rule:nonzero;stroke:#ffffff;stroke-width:0.1"
       d="m 184.352,80.6828 c 7.691,0 31.621,-16.5226 31.906,-36.7488 0,0.2851 0,0.5699 0,1.139 0,21.0821 -19.372,37.8891 -31.906,37.8891 -12.535,0 -31.907,-17.0922 -31.907,-37.8891 0,-0.2851 0,-0.5691 0,-1.139 0.285,20.2262 24.215,36.7488 31.907,36.7488" /><path
       inkscape:connector-curvature="0"
       id="path54"
       style="fill:#5f005f;fill-opacity:1;fill-rule:nonzero;stroke:none;stroke-width:0.1"
       d="m 105.44,159.025 c 13.845,0 25.069,-11.223 25.069,-25.069 0,-13.845 -11.224,-25.069 -25.069,-25.069 -13.8459,0 -25.0697,11.224 -25.0697,25.069 0,13.846 11.2238,25.069 25.0697,25.069" /><path
       inkscape:connector-curvature="0"
       id="path56"
       style="fill:#ffffff;fill-opacity:1;fill-rule:nonzero;stroke:none;stroke-width:0.1"
       d="m 111.992,151.619 c 3.619,0 6.552,-2.934 6.552,-6.553 0,-3.618 -2.933,-6.552 -6.552,-6.552 -3.619,0 -6.552,2.934 -6.552,6.552 0,3.619 2.933,6.553 6.552,6.553" /><path
       inkscape:connector-curvature="0"
       id="path58"
       style="fill:#ffffff;fill-opacity:1;fill-rule:nonzero;stroke:none;stroke-width:0.1"
       d="m 193.441,132.9982 c 0,0.285 -6.553,-2.849 -8.262,-3.133 -1.709,0.284 -8.261,3.418 -8.261,3.133 0,0 5.412,0 8.261,0 2.849,0 8.262,0 8.262,0" /><path
       inkscape:connector-curvature="0"
       id="path60"
       style="fill:#ffffff;fill-opacity:1;fill-rule:nonzero;stroke:none;stroke-width:0.1"
       d="m 141.905,135.096 c 0,0 -22.506,-15.384 -34.756,-30.483 C 94.8992,89.5148 95.184,86.666 95.184,86.666 l 8.831,-3.9879 c 0,0 12.535,23.6449 27.919,32.4759 15.383,8.831 17.377,16.238 17.377,16.238 l -7.406,3.704" /><path
       inkscape:connector-curvature="0"
       id="path62"
       style="fill:#ffffff;fill-opacity:1;fill-rule:nonzero;stroke:none;stroke-width:0.1"
       d="m 92.6203,180.677 c 0,0 -7.6918,-21.082 -24.7848,-29.913 0,0 26.779,3.134 24.7848,29.913" /><path
       inkscape:connector-curvature="0"
       id="path64"
       style="fill:#ffffff;fill-opacity:1;fill-rule:nonzero;stroke:none;stroke-width:0.1"
       d="m 272.38,180.677 c 0,0 7.692,-21.082 24.784,-29.913 0,0 -26.778,3.134 -24.784,29.913" /><path
       inkscape:connector-curvature="0"
       id="path66"
       style="fill:#ffffff;fill-opacity:1;fill-rule:nonzero;stroke:none;stroke-width:0.1"
       d="m 223.665,141.363 c 0,0 -16.808,17.662 -39.313,18.232 -0.285,0 0.569,0 0.285,0 -0.285,0 0.284,0 0.284,0 -22.79,-0.57 -39.313,-18.232 -39.313,-18.232 19.657,13.674 36.465,13.389 39.313,13.389 -0.284,0 19.087,0.285 38.744,-13.389" /><path
       inkscape:connector-curvature="0"
       id="path68"
       style="fill:#ffffff;fill-opacity:1;fill-rule:nonzero;stroke:none;stroke-width:0.1"
       d="m 204.008,178.397 c 0,0 -8.546,11.966 -19.941,12.25 h 0.285 0.285 c -8.547,-0.284 -19.657,-12.25 -19.657,-12.25 9.686,9.401 19.657,9.117 19.657,9.117 0,0 9.401,0.284 19.371,-9.117" /><path
       inkscape:connector-curvature="0"
       id="path70"
       style="fill:#ffffff;fill-opacity:1;fill-rule:nonzero;stroke:none;stroke-width:0.1"
       d="m 105.44,90.9391 c 0,0 -13.3896,-6.552 -23.0755,-2.5641 h -0.2848 c -8.5465,4.843 -12.8195,19.372 -12.8195,19.372 0,0 8.5461,-25.6392 36.1798,-16.8079" /><path
       inkscape:connector-curvature="0"
       id="path72"
       style="fill:#ffffff;fill-opacity:1;fill-rule:nonzero;stroke:none;stroke-width:0.1"
       d="m 261.554,90.9391 c 0,0 13.39,-6.552 23.076,-2.5641 11.395,4.843 13.104,19.372 13.104,19.372 0,0 -8.546,-25.6392 -36.18,-16.8079" /><path
       inkscape:connector-curvature="0"
       id="path74"
       style="fill:#ffffff;fill-opacity:1;fill-rule:nonzero;stroke:none;stroke-width:0.1"
       d="m 120.823,182.101 c 7.407,1.424 19.657,1.709 29.343,-1.424 12.25,-4.274 2.279,-19.942 4.843,-20.797 2.564,-0.855 5.983,10.825 28.773,9.686 23.075,-1.139 25.639,-11.395 28.773,-9.686 3.134,1.709 -3.134,28.488 31.337,22.221 0,0 -36.18,9.686 -34.471,-16.523 0,0 -20.796,15.953 -49.854,1.709 0.285,0 7.692,24.5 -38.744,14.814" /><path
       inkscape:connector-curvature="0"
       id="path76"
       style="fill:#c9a681;fill-opacity:1;fill-rule:nonzero;stroke:none;stroke-width:0.1"
       d="m 247.025,182.101 c 0.57,0 0.855,-0.285 1.14,-0.285 0.285,0 -0.285,0.285 -1.14,0.285" /><path
       inkscape:connector-curvature="0"
       id="path78"
       style="fill:#ffffff;fill-opacity:1;fill-rule:nonzero;stroke:none;stroke-width:0.1"
       d="m 110.853,217.141 c 0,0 -30.7675,-38.744 -35.3257,-53.557 C 70.9691,148.485 67.5508,86.666 63.5625,77.8352 l -14.2441,60.9638 26.2089,63.528 35.3257,14.814" /><path
       inkscape:connector-curvature="0"
       id="path80"
       style="fill:#ffffff;fill-opacity:1;fill-rule:nonzero;stroke:none;stroke-width:0.1"
       d="m 255.572,217.141 c 0,0 30.767,-38.744 35.325,-53.557 4.558,-15.099 7.977,-76.918 11.965,-85.7488 l 14.244,60.9638 -26.209,63.528 -35.325,14.814" /><path
       inkscape:connector-curvature="0"
       id="path82"
       style="fill:#5f005f;fill-opacity:1;fill-rule:nonzero;stroke:none;stroke-width:0.1"
       d="m 254.147,217.141 c 0,0 33.047,-27.633 42.733,-59.54 9.685,-31.906 5.697,-70.6498 13.104,-75.4932 10.541,-6.8367 22.506,33.9012 26.494,38.1742 6.267,6.837 27.064,24.214 28.488,27.348 1.424,3.134 -42.162,50.709 -61.249,60.11 -23.076,10.826 -51.564,11.68 -49.57,9.401" /><path
       inkscape:connector-curvature="0"
       id="path86"
       style="fill:#5f005f;fill-opacity:1;fill-rule:nonzero;stroke:none;stroke-width:0.1"
       d="m 110.853,217.141 c 0,0 -33.0467,-27.633 -42.7327,-59.54 C 58.4348,125.695 62.423,86.9512 55.016,82.1078 44.4754,75.2711 32.5105,116.009 28.5223,120.282 22.2547,127.119 1.45859,144.496 0.0339844,147.63 -1.39023,150.764 42.1965,198.339 61.2836,207.74 c 23.075,10.826 51.5634,11.68 49.5694,9.401" /><path
       inkscape:connector-curvature="0"
       id="path90"
       style="fill:#ffffff;fill-opacity:1;fill-rule:nonzero;stroke:none;stroke-width:0.1"
       d="m 61.5684,86.9512 c 0,0 2.8488,-15.384 7.4066,-20.2274 4.5582,-4.8429 1.4246,3.7043 1.4246,3.7043 0,0 -4.843,2.5641 -3.9883,22.2199 0.8547,19.657 -4.8429,-5.6968 -4.8429,-5.6968" /><path
       inkscape:connector-curvature="0"
       id="path92"
       style="fill:#ffffff;fill-opacity:1;fill-rule:nonzero;stroke:none;stroke-width:0.1"
       d="m 304.571,86.9512 c 0,0 -2.849,-15.384 -7.407,-20.2274 -4.558,-4.8429 -1.424,3.7043 -1.424,3.7043 0,0 4.843,2.5641 3.988,22.2199 -0.854,19.657 4.843,-5.6968 4.843,-5.6968" /><path
       inkscape:connector-curvature="0"
       id="path94"
       style="fill:#ffffff;fill-opacity:1;fill-rule:nonzero;stroke:none;stroke-width:0.1"
       d="m 154.724,100.91 c 1.259,0 2.279,-1.0202 2.279,-2.2791 0,-1.259 -1.02,-2.2789 -2.279,-2.2789 -1.259,0 -2.279,1.0199 -2.279,2.2789 0,1.2589 1.02,2.2791 2.279,2.2791" /><path
       inkscape:connector-curvature="0"
       id="path96"
       style="fill:#ffffff;fill-opacity:1;fill-rule:nonzero;stroke:none;stroke-width:0.1"
       d="m 141.62,87.2359 c 1.258,0 2.279,-1.0211 2.279,-2.2789 0,-1.259 -1.021,-2.2789 -2.279,-2.2789 -1.259,0 -2.279,1.0199 -2.279,2.2789 0,1.2578 1.02,2.2789 2.279,2.2789" /><path
       inkscape:connector-curvature="0"
       id="path98"
       style="fill:#ffffff;fill-opacity:1;fill-rule:nonzero;stroke:none;stroke-width:0.1"
       d="m 137.346,100.91 c 1.259,0 2.279,-1.0202 2.279,-2.2791 0,-1.259 -1.02,-2.2789 -2.279,-2.2789 -1.258,0 -2.279,1.0199 -2.279,2.2789 0,1.2589 1.021,2.2791 2.279,2.2791" /><path
       inkscape:connector-curvature="0"
       id="path100"
       style="fill:#ffffff;fill-opacity:1;fill-rule:nonzero;stroke:none;stroke-width:0.1"
       d="m 210.276,100.91 c 1.259,0 2.279,-1.0202 2.279,-2.2791 0,-1.259 -1.02,-2.2789 -2.279,-2.2789 -1.259,0 -2.279,1.0199 -2.279,2.2789 0,1.2589 1.02,2.2791 2.279,2.2791" /><path
       inkscape:connector-curvature="0"
       id="path102"
       style="fill:#ffffff;fill-opacity:1;fill-rule:nonzero;stroke:none;stroke-width:0.1"
       d="m 223.38,87.2359 c 1.259,0 2.279,-1.0211 2.279,-2.2789 0,-1.259 -1.02,-2.2789 -2.279,-2.2789 -1.258,0 -2.279,1.0199 -2.279,2.2789 0,1.2578 1.021,2.2789 2.279,2.2789" /><path
       inkscape:connector-curvature="0"
       id="path104"
       style="fill:#ffffff;fill-opacity:1;fill-rule:nonzero;stroke:none;stroke-width:0.1"
       d="m 227.654,100.91 c 1.258,0 2.279,-1.0202 2.279,-2.2791 0,-1.259 -1.021,-2.2789 -2.279,-2.2789 -1.259,0 -2.279,1.0199 -2.279,2.2789 0,1.2589 1.02,2.2791 2.279,2.2791" /></g></svg>