<?xml version="1.0" encoding="UTF-8" standalone="no"?>
<!-- Created with Inkscape (http://www.inkscape.org/) -->

<svg
   xmlns:dc="http://purl.org/dc/elements/1.1/"
   xmlns:cc="http://creativecommons.org/ns#"
   xmlns:rdf="http://www.w3.org/1999/02/22-rdf-syntax-ns#"
   xmlns:svg="http://www.w3.org/2000/svg"
   xmlns="http://www.w3.org/2000/svg"
   xmlns:sodipodi="http://sodipodi.sourceforge.net/DTD/sodipodi-0.dtd"
   xmlns:inkscape="http://www.inkscape.org/namespaces/inkscape"
   version="1.1"
   id="svg2"
   xml:space="preserve"
   width="172.6261"
   height="219.56343"
   viewBox="0 0 172.6261 219.56343"
   sodipodi:docname="ruby-on-rails.svg"
   inkscape:version="0.92.3 (2405546, 2018-03-11)"><metadata
     id="metadata8"><rdf:RDF><cc:Work
         rdf:about=""><dc:format>image/svg+xml</dc:format><dc:type
           rdf:resource="http://purl.org/dc/dcmitype/StillImage" /><dc:title></dc:title></cc:Work></rdf:RDF></metadata><defs
     id="defs6"><clipPath
       clipPathUnits="userSpaceOnUse"
       id="clipPath22"><path
         d="m 3280.21,527.84 c 0,-256.481 -192.54,-449.1212 -449.2,-449.1212 H 77.3945 V 3742.63 c 0,256.57 192.5075,449.12 449.2075,449.12 H 3280.21 Z"
         id="path20"
         inkscape:connector-curvature="0" /></clipPath><linearGradient
       x1="0"
       y1="0"
       x2="1"
       y2="0"
       gradientUnits="userSpaceOnUse"
       gradientTransform="matrix(3202.82,0,0,-3202.82,77.3926,2135.24)"
       spreadMethod="pad"
       id="linearGradient32"><stop
         style="stop-opacity:1;stop-color:#a61d3c"
         offset="0"
         id="stop24" /><stop
         style="stop-opacity:1;stop-color:#a61d3c"
         offset="0.0797546"
         id="stop26" /><stop
         style="stop-opacity:1;stop-color:#b22841"
         offset="0.981595"
         id="stop28" /><stop
         style="stop-opacity:1;stop-color:#b22841"
         offset="1"
         id="stop30" /></linearGradient><clipPath
       clipPathUnits="userSpaceOnUse"
       id="clipPath44"><path
         d="m 778.77,4188.02 10.335,-933.46 915.475,381.62 z"
         id="path42"
         inkscape:connector-curvature="0" /></clipPath><linearGradient
       x1="0"
       y1="0"
       x2="1"
       y2="0"
       gradientUnits="userSpaceOnUse"
       gradientTransform="matrix(925.815,0,0,-925.815,778.77,3721.29)"
       spreadMethod="pad"
       id="linearGradient54"><stop
         style="stop-opacity:1;stop-color:#b63044"
         offset="0"
         id="stop46" /><stop
         style="stop-opacity:1;stop-color:#b63044"
         offset="0.0368098"
         id="stop48" /><stop
         style="stop-opacity:1;stop-color:#bc3b50"
         offset="0.895705"
         id="stop50" /><stop
         style="stop-opacity:1;stop-color:#bc3b50"
         offset="1"
         id="stop52" /></linearGradient><clipPath
       clipPathUnits="userSpaceOnUse"
       id="clipPath66"><path
         d="M 399.727,2333.81 783.953,1397.7 87.7227,1622.05 Z"
         id="path64"
         inkscape:connector-curvature="0" /></clipPath><linearGradient
       x1="0"
       y1="0"
       x2="1"
       y2="0"
       gradientUnits="userSpaceOnUse"
       gradientTransform="matrix(-4.09e-5,936.108,936.108,4.09e-5,435.84,1397.7)"
       spreadMethod="pad"
       id="linearGradient76"><stop
         style="stop-opacity:1;stop-color:#a51d3c"
         offset="0"
         id="stop68" /><stop
         style="stop-opacity:1;stop-color:#a51d3c"
         offset="0.0368098"
         id="stop70" /><stop
         style="stop-opacity:1;stop-color:#901b38"
         offset="0.93865"
         id="stop72" /><stop
         style="stop-opacity:1;stop-color:#901b38"
         offset="1"
         id="stop74" /></linearGradient><clipPath
       clipPathUnits="userSpaceOnUse"
       id="clipPath90"><path
         d="M 780.059,85.1094 783.953,1397.7 1702.92,1019.56 Z"
         id="path88"
         inkscape:connector-curvature="0" /></clipPath><linearGradient
       x1="0"
       y1="0"
       x2="1"
       y2="0"
       gradientUnits="userSpaceOnUse"
       gradientTransform="matrix(-5.74e-5,1312.59,1312.59,5.74e-5,1241.49,85.1097)"
       spreadMethod="pad"
       id="linearGradient100"><stop
         style="stop-opacity:1;stop-color:#ba3647"
         offset="0"
         id="stop92" /><stop
         style="stop-opacity:1;stop-color:#ba3647"
         offset="0.0368098"
         id="stop94" /><stop
         style="stop-opacity:1;stop-color:#9f1c3b"
         offset="0.93865"
         id="stop96" /><stop
         style="stop-opacity:1;stop-color:#9f1c3b"
         offset="1"
         id="stop98" /></linearGradient><clipPath
       clipPathUnits="userSpaceOnUse"
       id="clipPath110"><path
         d="m 2622.59,4182.87 10.3,-933.54 -928.31,386.85 z"
         id="path108"
         inkscape:connector-curvature="0" /></clipPath><linearGradient
       x1="0"
       y1="0"
       x2="1"
       y2="0"
       gradientUnits="userSpaceOnUse"
       gradientTransform="matrix(-4.08e-5,933.54,933.54,4.08e-5,2168.74,3249.33)"
       spreadMethod="pad"
       id="linearGradient120"><stop
         style="stop-opacity:1;stop-color:#cb4057"
         offset="0"
         id="stop112" /><stop
         style="stop-opacity:1;stop-color:#cb4057"
         offset="0.0368098"
         id="stop114" /><stop
         style="stop-opacity:1;stop-color:#b42e43"
         offset="0.895705"
         id="stop116" /><stop
         style="stop-opacity:1;stop-color:#b42e43"
         offset="1"
         id="stop118" /></linearGradient><clipPath
       clipPathUnits="userSpaceOnUse"
       id="clipPath130"><path
         d="m 2622.59,4182.87 10.3,-933.54 644.84,-229.59 z"
         id="path128"
         inkscape:connector-curvature="0" /></clipPath><linearGradient
       x1="0"
       y1="0"
       x2="1"
       y2="0"
       gradientUnits="userSpaceOnUse"
       gradientTransform="matrix(396.517,228.929,228.929,-396.517,2559.79,3375.94)"
       spreadMethod="pad"
       id="linearGradient140"><stop
         style="stop-opacity:1;stop-color:#d4445e"
         offset="0"
         id="stop132" /><stop
         style="stop-opacity:1;stop-color:#d4445e"
         offset="0.0797546"
         id="stop134" /><stop
         style="stop-opacity:1;stop-color:#b32b43"
         offset="0.944785"
         id="stop136" /><stop
         style="stop-opacity:1;stop-color:#b32b43"
         offset="1"
         id="stop138" /></linearGradient><clipPath
       clipPathUnits="userSpaceOnUse"
       id="clipPath150"><path
         d="m 3011.36,2322.93 -378.47,926.4 644.84,-229.59 z"
         id="path148"
         inkscape:connector-curvature="0" /></clipPath><linearGradient
       x1="0"
       y1="0"
       x2="1"
       y2="0"
       gradientUnits="userSpaceOnUse"
       gradientTransform="matrix(644.844,0,0,-644.844,2632.89,2786.13)"
       spreadMethod="pad"
       id="linearGradient156"><stop
         style="stop-opacity:1;stop-color:#bd3c51"
         offset="0"
         id="stop152" /><stop
         style="stop-opacity:1;stop-color:#b63044"
         offset="1"
         id="stop154" /></linearGradient><clipPath
       clipPathUnits="userSpaceOnUse"
       id="clipPath166"><path
         d="m 3011.36,2322.93 -380.95,-921.25 645.99,230.67 z"
         id="path164"
         inkscape:connector-curvature="0" /></clipPath><linearGradient
       x1="0"
       y1="0"
       x2="1"
       y2="0"
       gradientUnits="userSpaceOnUse"
       gradientTransform="matrix(645.996,0,0,-645.996,2630.41,1862.31)"
       spreadMethod="pad"
       id="linearGradient172"><stop
         style="stop-opacity:1;stop-color:#b83446"
         offset="0"
         id="stop168" /><stop
         style="stop-opacity:1;stop-color:#b22740"
         offset="1"
         id="stop170" /></linearGradient><clipPath
       clipPathUnits="userSpaceOnUse"
       id="clipPath182"><path
         d="m 2638.04,87.6016 -7.63,1314.0784 645.99,230.67 z"
         id="path180"
         inkscape:connector-curvature="0" /></clipPath><linearGradient
       x1="0"
       y1="0"
       x2="1"
       y2="0"
       gradientUnits="userSpaceOnUse"
       gradientTransform="matrix(496.303,-180.639,-180.639,-496.303,2494.53,1028.37)"
       spreadMethod="pad"
       id="linearGradient188"><stop
         style="stop-opacity:1;stop-color:#911a39"
         offset="0"
         id="stop184" /><stop
         style="stop-opacity:1;stop-color:#9a1b3a"
         offset="1"
         id="stop186" /></linearGradient><clipPath
       clipPathUnits="userSpaceOnUse"
       id="clipPath198"><path
         d="M 2638.04,87.6016 2630.41,1401.68 1703.55,1019.9 Z"
         id="path196"
         inkscape:connector-curvature="0" /></clipPath><linearGradient
       x1="0"
       y1="0"
       x2="1"
       y2="0"
       gradientUnits="userSpaceOnUse"
       gradientTransform="matrix(845.178,-1007.24,-1007.24,-845.178,2069.5,1326.96)"
       spreadMethod="pad"
       id="linearGradient208"><stop
         style="stop-opacity:1;stop-color:#b0253f"
         offset="0"
         id="stop200" /><stop
         style="stop-opacity:1;stop-color:#b0253f"
         offset="0.0368098"
         id="stop202" /><stop
         style="stop-opacity:1;stop-color:#bd3e53"
         offset="0.93865"
         id="stop204" /><stop
         style="stop-opacity:1;stop-color:#bd3e53"
         offset="1"
         id="stop206" /></linearGradient><clipPath
       clipPathUnits="userSpaceOnUse"
       id="clipPath218"><path
         d="M 2638.04,87.6016 780.348,84.9414 1703.55,1019.9 Z"
         id="path216"
         inkscape:connector-curvature="0" /></clipPath><linearGradient
       x1="0"
       y1="0"
       x2="1"
       y2="0"
       gradientUnits="userSpaceOnUse"
       gradientTransform="matrix(-4.09e-5,934.951,934.951,4.09e-5,1709.19,84.9398)"
       spreadMethod="pad"
       id="linearGradient228"><stop
         style="stop-opacity:1;stop-color:#b0253f"
         offset="0"
         id="stop220" /><stop
         style="stop-opacity:1;stop-color:#b0253f"
         offset="0.0368098"
         id="stop222" /><stop
         style="stop-opacity:1;stop-color:#951a39"
         offset="0.93865"
         id="stop224" /><stop
         style="stop-opacity:1;stop-color:#951a39"
         offset="1"
         id="stop226" /></linearGradient><clipPath
       clipPathUnits="userSpaceOnUse"
       id="clipPath254"><path
         d="m 2794.8,3322.73 118.91,-5.81 0.99,55.21 -123.81,25.16 z m 172.79,247.61 c -105.52,74.64 -215.13,128.03 -339.94,162.99 l 2.76,-254.58 c 153.1,-0.17 310.95,-49.41 465.23,-135.76 z m -117.48,208.66 -43.69,31.22 v -75.4 l 105.14,-65.01 z"
         id="path252"
         inkscape:connector-curvature="0" /></clipPath><linearGradient
       x1="0"
       y1="0"
       x2="1"
       y2="0"
       gradientUnits="userSpaceOnUse"
       gradientTransform="matrix(467.988,0,0,-467.988,2627.65,3563.57)"
       spreadMethod="pad"
       id="linearGradient264"><stop
         style="stop-opacity:1;stop-color:#ffffff"
         offset="0"
         id="stop256" /><stop
         style="stop-opacity:1;stop-color:#ffffff"
         offset="0.0368098"
         id="stop258" /><stop
         style="stop-opacity:1;stop-color:#f1dfcd"
         offset="0.742331"
         id="stop260" /><stop
         style="stop-opacity:1;stop-color:#f1dfcd"
         offset="1"
         id="stop262" /></linearGradient><clipPath
       clipPathUnits="userSpaceOnUse"
       id="clipPath274"><path
         d="m 2391.34,3350.05 82.13,-34.3 -18.1,58.3 z m -76.31,496.95 -36.7,121.72 -13.28,1.17 -139.23,-82.87 15.19,-36.2 z m 312.62,-113.67 c -97.89,27.56 -205.08,43.92 -327.38,49.74 -168.07,8.13 -375.31,-32.97 -587.76,-150.21 l 582.45,-242.79 c 106.93,60.86 219.86,88.84 335.45,88.68 z"
         id="path272"
         inkscape:connector-curvature="0" /></clipPath><linearGradient
       x1="0"
       y1="0"
       x2="1"
       y2="0"
       gradientUnits="userSpaceOnUse"
       gradientTransform="matrix(755.15,-435.986,-435.986,-755.15,1855.96,3881.31)"
       spreadMethod="pad"
       id="linearGradient284"><stop
         style="stop-opacity:1;stop-color:#ffffff"
         offset="0"
         id="stop276" /><stop
         style="stop-opacity:1;stop-color:#ffffff"
         offset="0.0368098"
         id="stop278" /><stop
         style="stop-opacity:1;stop-color:#f1dfcd"
         offset="0.895705"
         id="stop280" /><stop
         style="stop-opacity:1;stop-color:#f1dfcd"
         offset="1"
         id="stop282" /></linearGradient></defs><sodipodi:namedview
     pagecolor="#ffffff"
     bordercolor="#666666"
     borderopacity="1"
     objecttolerance="10"
     gridtolerance="10"
     guidetolerance="10"
     inkscape:pageopacity="0"
     inkscape:pageshadow="2"
     inkscape:window-width="1440"
     inkscape:window-height="845"
     id="namedview4"
     showgrid="false"
     inkscape:zoom="0.41447136"
     inkscape:cx="-101.87612"
     inkscape:cy="-141.3638"
     inkscape:window-x="0"
     inkscape:window-y="27"
     inkscape:window-maximized="1"
     inkscape:current-layer="g10" /><g
     id="g10"
     inkscape:groupmode="layer"
     inkscape:label="ink_ext_XXXXXX"
     transform="matrix(1.3333333,0,0,-1.3333333,-7.2381358,559.75581)"><g
       id="g12"
       transform="matrix(0.03856004,0,0,0.03856004,5.428602,255.14429)"><path
         d="M 3357.61,482.512 C 3357.61,215.969 3141.56,0 2875.19,0 H 0 v 3788.05 c 0,266.45 216.016,482.5 482.465,482.5 H 3357.61 V 482.512"
         style="fill:#76122c;fill-opacity:1;fill-rule:nonzero;stroke:none"
         id="path14"
         inkscape:connector-curvature="0" /><g
         id="g16"><g
           id="g18"
           clip-path="url(#clipPath22)"><path
             d="m 3280.21,527.84 c 0,-256.481 -192.54,-449.1212 -449.2,-449.1212 H 77.3945 V 3742.63 c 0,256.57 192.5075,449.12 449.2075,449.12 H 3280.21 V 527.84"
             style="fill:url(#linearGradient32);fill-opacity:1;fill-rule:nonzero;stroke:none"
             id="path34"
             inkscape:connector-curvature="0" /></g></g><path
         d="M 778.77,4188.02 789.105,3254.56 95.4102,3022.32 Z"
         style="fill:#811835;fill-opacity:1;fill-rule:nonzero;stroke:none"
         id="path36"
         inkscape:connector-curvature="0" /><g
         id="g38"><g
           id="g40"
           clip-path="url(#clipPath44)"><path
             d="m 778.77,4188.02 10.335,-933.46 915.475,381.62 z"
             style="fill:url(#linearGradient54);fill-opacity:1;fill-rule:nonzero;stroke:none"
             id="path56"
             inkscape:connector-curvature="0" /></g></g><path
         d="M 399.727,2333.81 789.105,3254.56 95.4102,3022.32 Z"
         style="fill:#ab1e3e;fill-opacity:1;fill-rule:nonzero;stroke:none"
         id="path58"
         inkscape:connector-curvature="0" /><g
         id="g60"><g
           id="g62"
           clip-path="url(#clipPath66)"><path
             d="M 399.727,2333.81 783.953,1397.7 87.7227,1622.05 Z"
             style="fill:url(#linearGradient76);fill-opacity:1;fill-rule:nonzero;stroke:none"
             id="path78"
             inkscape:connector-curvature="0" /></g></g><path
         d="M 780.059,85.1094 783.953,1397.7 87.7227,1622.05 Z"
         style="fill:#811835;fill-opacity:1;fill-rule:nonzero;stroke:none"
         id="path80"
         inkscape:connector-curvature="0" /><path
         d="M 780.059,85.1094 87.7227,84.9414 V 1622.05 Z"
         style="fill:#831935;fill-opacity:1;fill-rule:nonzero;stroke:none"
         id="path82"
         inkscape:connector-curvature="0" /><g
         id="g84"><g
           id="g86"
           clip-path="url(#clipPath90)"><path
             d="M 780.059,85.1094 783.953,1397.7 1702.92,1019.56 Z"
             style="fill:url(#linearGradient100);fill-opacity:1;fill-rule:nonzero;stroke:none"
             id="path102"
             inkscape:connector-curvature="0" /></g></g><g
         id="g104"><g
           id="g106"
           clip-path="url(#clipPath110)"><path
             d="m 2622.59,4182.87 10.3,-933.54 -928.31,386.85 z"
             style="fill:url(#linearGradient120);fill-opacity:1;fill-rule:nonzero;stroke:none"
             id="path122"
             inkscape:connector-curvature="0" /></g></g><g
         id="g124"><g
           id="g126"
           clip-path="url(#clipPath130)"><path
             d="m 2622.59,4182.87 10.3,-933.54 644.84,-229.59 z"
             style="fill:url(#linearGradient140);fill-opacity:1;fill-rule:nonzero;stroke:none"
             id="path142"
             inkscape:connector-curvature="0" /></g></g><g
         id="g144"><g
           id="g146"
           clip-path="url(#clipPath150)"><path
             d="m 3011.36,2322.93 -378.47,926.4 644.84,-229.59 z"
             style="fill:url(#linearGradient156);fill-opacity:1;fill-rule:nonzero;stroke:none"
             id="path158"
             inkscape:connector-curvature="0" /></g></g><g
         id="g160"><g
           id="g162"
           clip-path="url(#clipPath166)"><path
             d="m 3011.36,2322.93 -380.95,-921.25 645.99,230.67 z"
             style="fill:url(#linearGradient172);fill-opacity:1;fill-rule:nonzero;stroke:none"
             id="path174"
             inkscape:connector-curvature="0" /></g></g><g
         id="g176"><g
           id="g178"
           clip-path="url(#clipPath182)"><path
             d="m 2638.04,87.6016 -7.63,1314.0784 645.99,230.67 z"
             style="fill:url(#linearGradient188);fill-opacity:1;fill-rule:nonzero;stroke:none"
             id="path190"
             inkscape:connector-curvature="0" /></g></g><g
         id="g192"><g
           id="g194"
           clip-path="url(#clipPath198)"><path
             d="M 2638.04,87.6016 2630.41,1401.68 1703.55,1019.9 Z"
             style="fill:url(#linearGradient208);fill-opacity:1;fill-rule:nonzero;stroke:none"
             id="path210"
             inkscape:connector-curvature="0" /></g></g><g
         id="g212"><g
           id="g214"
           clip-path="url(#clipPath218)"><path
             d="M 2638.04,87.6016 780.348,84.9414 1703.55,1019.9 Z"
             style="fill:url(#linearGradient228);fill-opacity:1;fill-rule:nonzero;stroke:none"
             id="path230"
             inkscape:connector-curvature="0" /></g></g><path
         d="m 2187.5,1348.04 -65.77,159.59 -242.77,45.42 63.93,-183.66 z m -162.49,1700.19 106.37,-146.15 65.76,95.75 -92.83,144.14 z m 317.27,283.3 52.15,-124.71 96.72,52.14 -35.78,115.09 z m -42.01,451.54 C 1728.16,3810.88 704.039,3268.67 556.988,1093.47 H 1959.82 c -314.56,814.88 -278.07,1429.74 -61.78,1846.4 314.53,605.97 782.68,646.08 1219.77,390.67 15.45,36.7 36.7,83.19 36.7,83.19 -249.44,239.8 -482.93,351.32 -854.24,369.34 z m 494.53,-460.34 118.91,-5.81 0.99,55.21 -123.81,25.16 z m -913.85,-610.04 -39.69,-136.43 143.15,-131.6 35.78,126.79 z m -1107.329,-99.73 -222.398,96.74 -75.442,-220.45 228.258,-85.11 z m 2195.219,1081.17 -162.42,116.09 v -75.4 l 156.6,-96.81 z m -653.81,152.87 -36.7,121.72 -193.37,15.53 56.05,-133.43 z m -587.91,-104.46 -114.08,148.88 -160.5,-94.74 133.43,-145.14 z m -545.39,-442.98 -177.9,131.62 -123.803,-168.32 195.333,-121.89 z m -967.667,-1750.99 272.058,-30.98 59.328,252.84 -260.476,46.25 z m 1584.607,498.69 208.9,-95.73 -21.25,148.87 -190.56,102.46 2.91,-155.6"
         style="fill:#f6d1d9;fill-opacity:1;fill-rule:nonzero;stroke:none"
         id="path232"
         inkscape:connector-curvature="0" /><path
         d="m 911.371,3305.3 167.769,70.08 -75.31,55.8 z"
         style="fill:#ffffff;fill-opacity:1;fill-rule:nonzero;stroke:none"
         id="path234"
         inkscape:connector-curvature="0" /><path
         d="m 1585.97,3651.54 44.55,28.73 -157.1,93.66 z"
         style="fill:#ffffff;fill-opacity:1;fill-rule:nonzero;stroke:none"
         id="path236"
         inkscape:connector-curvature="0" /><path
         d="m 284.973,1816.68 -62.942,-237.89 149.254,-48.07 114.836,-13.13 59.328,252.84 -260.476,46.25"
         style="fill:#cfb6bf;fill-opacity:1;fill-rule:nonzero;stroke:none"
         id="path238"
         inkscape:connector-curvature="0" /><path
         d="m 636.367,1757.32 c -16.894,-95.08 -31.801,-194.3 -44.59,-297.68 l 192.176,-61.94 -147.586,359.62"
         style="fill:#cfb6bf;fill-opacity:1;fill-rule:nonzero;stroke:none"
         id="path240"
         inkscape:connector-curvature="0" /><path
         d="m 222.031,1578.79 -7.968,-30.22 157.222,-17.85 z"
         style="fill:#b7babc;fill-opacity:1;fill-rule:nonzero;stroke:none"
         id="path242"
         inkscape:connector-curvature="0" /><path
         d="m 783.953,1397.7 -192.176,61.94 c -14.32,-116.66 -26.152,-238.55 -34.789,-366.17 h 226.059 l 0.906,304.23"
         style="fill:#b7babc;fill-opacity:1;fill-rule:nonzero;stroke:none"
         id="path244"
         inkscape:connector-curvature="0" /><path
         d="M 783.047,1093.47 H 1523.41 L 783.953,1397.7 Z"
         style="fill:#d6b3be;fill-opacity:1;fill-rule:nonzero;stroke:none"
         id="path246"
         inkscape:connector-curvature="0" /><g
         id="g248"><g
           id="g250"
           clip-path="url(#clipPath254)"><path
             d="m 2794.8,3322.73 118.91,-5.81 0.99,55.21 -123.81,25.16 z m 172.79,247.61 c -105.52,74.64 -215.13,128.03 -339.94,162.99 l 2.76,-254.58 c 153.1,-0.17 310.95,-49.41 465.23,-135.76 z m -117.48,208.66 -43.69,31.22 v -75.4 l 105.14,-65.01 -61.45,109.19"
             style="fill:url(#linearGradient264);fill-opacity:1;fill-rule:nonzero;stroke:none"
             id="path266"
             inkscape:connector-curvature="0" /></g></g><g
         id="g268"><g
           id="g270"
           clip-path="url(#clipPath274)"><path
             d="m 2391.34,3350.05 82.13,-34.3 -18.1,58.3 z m -76.31,496.95 -36.7,121.72 -13.28,1.17 -139.23,-82.87 15.19,-36.2 z m 312.62,-113.67 c -97.89,27.56 -205.08,43.92 -327.38,49.74 -168.07,8.13 -375.31,-32.97 -587.76,-150.21 l 582.45,-242.79 c 106.93,60.86 219.86,88.84 335.45,88.68 l -2.76,254.58"
             style="fill:url(#linearGradient284);fill-opacity:1;fill-rule:nonzero;stroke:none"
             id="path286"
             inkscape:connector-curvature="0" /></g></g><path
         d="m 1634.34,241.789 h 166.32 v 620.84 h -166.32 z m 512.47,620.84 h -166.23 v -620.84 h 414.84 v 166.41 h -248.61 z m 676.06,-222.438 c -73.56,0 -161.51,0 -161.51,0 v 67.668 h 283.32 v 153.77 c 0,0 -184.74,0 -284.31,0 -99.63,0 -168.3,-79.207 -168.3,-158.59 v -65.758 c 0,-95.73 86.11,-162.492 166.4,-162.492 80.2,0 149.86,0 149.86,0 V 399.391 H 2502.79 V 242.789 c 0,0 211.72,0 301.64,0 89.94,0 171.23,67.672 171.23,149.789 v 82.211 c 0,99.723 -79.3,165.402 -152.79,165.402 z M 1288.1,531.238 h -148.31 v 166.321 h 148.31 z m -5.11,332.723 h -152.2 c -76.06,0 -155.981,-69.75 -155.981,-161.25 0,-91.512 0,-458.922 0,-458.922 h 164.981 v 121.07 h 148.31 v -121.07 h 167.68 c 0,0 0,369.992 0,460.172 0,90.25 -81.25,160 -172.79,160 z M 631.848,572.512 H 479.645 v 125.136 h 152.203 z m 164.976,30.886 v 103.473 c 0,55.211 -55.047,154.348 -155.679,154.348 -100.559,0 -327.817,0 -327.817,0 V 241.051 h 167.645 v 180.59 L 616.355,241.051 H 817.5 L 660.156,450.039 c 0,0 136.668,26.981 136.668,153.359"
         style="fill:#ffffff;fill-opacity:1;fill-rule:nonzero;stroke:none"
         id="path288"
         inkscape:connector-curvature="0" /></g></g></svg>