<?xml version="1.0" encoding="UTF-8" standalone="no"?>
<svg
   xmlns:dc="http://purl.org/dc/elements/1.1/"
   xmlns:cc="http://creativecommons.org/ns#"
   xmlns:rdf="http://www.w3.org/1999/02/22-rdf-syntax-ns#"
   xmlns:svg="http://www.w3.org/2000/svg"
   xmlns="http://www.w3.org/2000/svg"
   xmlns:sodipodi="http://sodipodi.sourceforge.net/DTD/sodipodi-0.dtd"
   xmlns:inkscape="http://www.inkscape.org/namespaces/inkscape"
   width="256px"
   height="210px"
   viewBox="0 0 256 210"
   version="1.1"
   preserveAspectRatio="xMidYMid"
   id="svg38"
   sodipodi:docname="strongloop.svg"
   inkscape:version="0.92.3 (2405546, 2018-03-11)">
  <metadata
     id="metadata44">
    <rdf:RDF>
      <cc:Work
         rdf:about="">
        <dc:format>image/svg+xml</dc:format>
        <dc:type
           rdf:resource="http://purl.org/dc/dcmitype/StillImage" />
      </cc:Work>
    </rdf:RDF>
  </metadata>
  <defs
     id="defs42" />
  <sodipodi:namedview
     pagecolor="#ffffff"
     bordercolor="#666666"
     borderopacity="1"
     objecttolerance="10"
     gridtolerance="10"
     guidetolerance="10"
     inkscape:pageopacity="0"
     inkscape:pageshadow="2"
     inkscape:window-width="1440"
     inkscape:window-height="845"
     id="namedview40"
     showgrid="false"
     inkscape:zoom="1.1238095"
     inkscape:cx="128"
     inkscape:cy="105"
     inkscape:window-x="0"
     inkscape:window-y="27"
     inkscape:window-maximized="1"
     inkscape:current-layer="svg38" />
  <g
     id="g36">
    <path
       d="M140.95127,59.232061 L164.43327,45.6740842 L187.915269,59.232061 L187.915269,86.3514819 L164.43327,99.9059911 L140.95127,86.3514819 L140.95127,59.232061"
       fill="#07592B"
       id="path2"
       style="fill:#5f005f;fill-opacity:1" />
    <path
       d="M154.849063,61.7806832 L187.623998,42.8584635 L220.395466,61.7806832 L220.395466,99.6251225 L187.623998,118.547342 L154.849063,99.6251225 L154.849063,61.7806832"
       fill="#7DBD33"
       id="path4"
       style="fill:#c800c8;fill-opacity:1" />
    <path
       d="M218.439788,61.1149206 L187.610128,43.125462 L187.610128,36.6238747 L208.377065,24.6713566 L255.358402,51.7942451 L255.358402,156.790546 L164.429802,209.288696 L125.305851,186.812275 L125.305851,140.975218 L165.01928,118.221396 L186.420771,130.683639 L186.420771,79.9712576 L218.439788,61.1149206"
       fill="#07592B"
       id="path6"
       style="fill:#5f005f;fill-opacity:1" />
    <path
       d="M179.485745,143.718021 L204.094686,129.508152 L228.703628,143.718021 L228.703628,172.134292 L204.094686,186.344161 L179.485745,172.134292 L179.485745,143.718021"
       fill="#7DBD33"
       id="path8"
       style="fill:#c800c8;fill-opacity:1" />
    <path
       d="M74.284861,130.912494 L96.9242548,117.843437 L119.563649,130.912494 L119.563649,157.054077 L96.9242548,170.123134 L74.284861,157.054077 L74.284861,130.912494"
       fill="#7DBD33"
       id="path10"
       style="fill:#c800c8;fill-opacity:1" />
    <path
       d="M74.2952635,101.979564 L89.9892284,92.918952 L105.683193,101.979564 L105.683193,120.104256 L89.9892284,129.164868 L74.2952635,120.104256 L74.2952635,101.979564"
       fill="#07592B"
       id="path12"
       style="fill:#5f005f;fill-opacity:1" />
    <path
       d="M73.9103695,52.1895416 L95.5164444,39.7168965 L117.122519,52.1895416 L117.122519,77.1382993 L95.5164444,89.6144119 L73.9103695,77.1382993 L73.9103695,52.1895416"
       fill="#7DBD33"
       id="path14"
       style="fill:#c800c8;fill-opacity:1" />
    <path
       d="M116.657873,84.1842861 L140.379131,70.4910764 L164.096921,84.1842861 L164.096921,111.570706 L140.379131,125.263915 L116.657873,111.570706 L116.657873,84.1842861"
       fill="#07592B"
       id="path16"
       style="fill:#5f005f;fill-opacity:1" />
    <path
       d="M39.6235987,52.5328254 L49.4990764,46.8322337 L59.3745541,52.5328254 L59.3745541,63.9374764 L49.4990764,69.6380681 L39.6235987,63.9374764 L39.6235987,52.5328254"
       fill="#07592B"
       id="path18"
       style="fill:#5f005f;fill-opacity:1" />
    <path
       d="M44.3914294,106.71272 L54.2669071,101.012128 L64.1423848,106.71272 L64.1423848,118.117371 L54.2669071,123.817962 L44.3914294,118.117371 L44.3914294,106.71272"
       fill="#7DBD33"
       id="path20"
       style="fill:#c800c8;fill-opacity:1" />
    <path
       d="M112.996179,165.497471 L125.312786,158.385602 L137.629393,165.497471 L137.629393,179.717743 L125.312786,186.829613 L112.996179,179.717743 L112.996179,165.497471"
       fill="#7DBD33"
       id="path22"
       style="fill:#c800c8;fill-opacity:1" />
    <path
       d="M24.1688923,65.1753786 L29.4152398,62.1447721 L34.6650548,65.1753786 L34.6650548,71.2331242 L29.4152398,74.2637308 L24.1688923,71.2331242 L24.1688923,65.1753786"
       fill="#7DBD33"
       id="path24"
       style="fill:#c800c8;fill-opacity:1" />
    <path
       d="M35.7295814,101.729903 L40.9759289,98.6992965 L46.2222764,101.729903 L46.2222764,107.787649 L40.9759289,110.814788 L35.7295814,107.787649 L35.7295814,101.729903"
       fill="#7DBD33"
       id="path26"
       style="fill:#c800c8;fill-opacity:1" />
    <path
       d="M28.3611158,122.389347 L33.6074633,119.35874 L38.8538108,122.389347 L38.8538108,128.447092 L33.6074633,131.477699 L28.3611158,128.447092 L28.3611158,122.389347"
       fill="#07592B"
       id="path28"
       style="fill:#5f005f;fill-opacity:1" />
    <path
       d="M0.0419352381,42.6365426 L5.28828275,39.6059361 L10.5346303,42.6365426 L10.5346303,48.6942883 L5.28828275,51.7248948 L0.0419352381,48.6942883 L0.0419352381,42.6365426"
       fill="#07592B"
       id="path30"
       style="fill:#5f005f;fill-opacity:1" />
    <path
       d="M145.015196,11.6439094 L164.651723,0.308608677 L184.284783,11.6439094 L184.284783,34.3179784 L164.651723,45.6567467 L145.015196,34.3179784 L145.015196,11.6439094"
       fill="#07592B"
       id="path32"
       style="fill:#5f005f;fill-opacity:1" />
    <path
       d="M104.334331,35.2854146 L120.874369,25.7358832 L137.410939,35.2854146 L137.410939,54.3844775 L120.874369,63.9340089 L104.334331,54.3844775 L104.334331,35.2854146"
       fill="#07592B"
       id="path34"
       style="fill:#5f005f;fill-opacity:1" />
  </g>
</svg>
