<?xml version="1.0" encoding="UTF-8" standalone="no"?>
<!-- Created with Inkscape (http://www.inkscape.org/) -->

<svg
   xmlns:dc="http://purl.org/dc/elements/1.1/"
   xmlns:cc="http://creativecommons.org/ns#"
   xmlns:rdf="http://www.w3.org/1999/02/22-rdf-syntax-ns#"
   xmlns:svg="http://www.w3.org/2000/svg"
   xmlns="http://www.w3.org/2000/svg"
   xmlns:sodipodi="http://sodipodi.sourceforge.net/DTD/sodipodi-0.dtd"
   xmlns:inkscape="http://www.inkscape.org/namespaces/inkscape"
   width="667"
   height="480.50986"
   viewBox="0 0 176.47708 127.1349"
   version="1.1"
   id="svg8"
   sodipodi:docname="titantron-infographic.svg"
   inkscape:version="0.92.3 (2405546, 2018-03-11)">
  <defs
     id="defs2" />
  <sodipodi:namedview
     id="base"
     pagecolor="#ffffff"
     bordercolor="#666666"
     borderopacity="1.0"
     inkscape:pageopacity="0.0"
     inkscape:pageshadow="2"
     inkscape:zoom="1.4142136"
     inkscape:cx="406.90645"
     inkscape:cy="205.63566"
     inkscape:document-units="px"
     inkscape:current-layer="layer1"
     showgrid="true"
     showborder="true"
     inkscape:snap-global="false"
     showguides="false"
     units="px"
     inkscape:window-width="1440"
     inkscape:window-height="845"
     inkscape:window-x="0"
     inkscape:window-y="27"
     inkscape:window-maximized="1"
     inkscape:showpageshadow="false" />
  <metadata
     id="metadata5">
    <rdf:RDF>
      <cc:Work
         rdf:about="">
        <dc:format>image/svg+xml</dc:format>
        <dc:type
           rdf:resource="http://purl.org/dc/dcmitype/StillImage" />
        <dc:title></dc:title>
      </cc:Work>
    </rdf:RDF>
  </metadata>
  <g
     inkscape:label="Layer 1"
     inkscape:groupmode="layer"
     id="layer1"
     transform="translate(134.50966,-121.99998)">
    <path
       sodipodi:nodetypes="ccccc"
       inkscape:connector-curvature="0"
       id="path859"
       d="m -98.34327,154.77696 63.677032,36.86566 -0.03679,48.99441 -63.640241,-36.66984 z"
       style="opacity:1;fill:#6d006d;fill-opacity:1;stroke:none;stroke-width:4.61506462;stroke-linecap:square;stroke-miterlimit:4;stroke-dasharray:none;stroke-opacity:1;paint-order:fill markers stroke" />
    <path
       sodipodi:nodetypes="ccccc"
       inkscape:connector-curvature="0"
       id="path985"
       d="m -107.59214,156.16345 67.47175,39.06258 -0.03898,51.91415 -67.43277,-38.8551 z"
       style="opacity:1;fill:#e900e9;fill-opacity:1;stroke:none;stroke-width:4.89009142;stroke-linecap:square;stroke-miterlimit:4;stroke-dasharray:none;stroke-opacity:1;paint-order:fill markers stroke" />
    <path
       style="opacity:1;fill:#cccccc;fill-opacity:1;stroke:none;stroke-width:4.61506462;stroke-linecap:square;stroke-miterlimit:4;stroke-dasharray:none;stroke-opacity:1;paint-order:fill markers stroke"
       d="m -105.69478,158.72178 63.677034,36.86564 -0.03679,48.99442 -63.640244,-36.66983 z"
       id="rect825"
       inkscape:connector-curvature="0"
       sodipodi:nodetypes="ccccc" />
    <path
       style="fill:#24245c;fill-opacity:1;stroke:none;stroke-width:0.43244156px;stroke-linecap:butt;stroke-linejoin:miter;stroke-opacity:1"
       d="m -101.50358,161.22618 v 49.03274 l -4.24636,-2.45163 v -49.03275 z"
       id="path828"
       inkscape:connector-curvature="0" />
    <path
       style="fill:#00dada;fill-opacity:1;stroke:none;stroke-width:0.43244156px;stroke-linecap:butt;stroke-linejoin:miter;stroke-opacity:1"
       d="m -101.50358,161.22618 59.449043,34.32292 v 4.90327 l -59.449043,-34.32292 z"
       id="path830"
       inkscape:connector-curvature="0" />
    <path
       style="fill:#ffffff;stroke:none;stroke-width:0.43244156px;stroke-linecap:butt;stroke-linejoin:miter;stroke-opacity:1"
       d="m -98.672671,171.03273 v 8.17212 l 28.309065,16.34425 v -8.17212 z"
       id="path832"
       inkscape:connector-curvature="0" />
    <path
       style="fill:#ffffff;stroke:none;stroke-width:0.43244156px;stroke-linecap:butt;stroke-linejoin:miter;stroke-opacity:1"
       d="m -98.672671,182.4737 53.78723,29.41965 v 27.78522 l -53.78723,-31.05407 z"
       id="path834"
       inkscape:connector-curvature="0" />
    <ellipse
       style="opacity:1;fill:#e6e6e6;fill-opacity:1;stroke:none;stroke-width:3.74951863;stroke-linecap:square;stroke-miterlimit:4;stroke-dasharray:none;stroke-opacity:1;paint-order:fill markers stroke"
       id="path836"
       cx="-116.37722"
       cy="219.5108"
       rx="1.9501369"
       ry="1.7378198"
       transform="matrix(0.89112711,0.45375376,0,1,0,0)" />
    <ellipse
       transform="matrix(0.89112711,0.45375376,0,1,0,0)"
       ry="1.7378198"
       rx="1.9501369"
       cy="224.64703"
       cx="-116.49855"
       id="ellipse838"
       style="opacity:1;fill:#e6e6e6;fill-opacity:1;stroke:none;stroke-width:3.74951863;stroke-linecap:square;stroke-miterlimit:4;stroke-dasharray:none;stroke-opacity:1;paint-order:fill markers stroke" />
    <ellipse
       style="opacity:1;fill:#e6e6e6;fill-opacity:1;stroke:none;stroke-width:3.74951863;stroke-linecap:square;stroke-miterlimit:4;stroke-dasharray:none;stroke-opacity:1;paint-order:fill markers stroke"
       id="ellipse840"
       cx="-116.49855"
       cy="229.62012"
       rx="1.9501369"
       ry="1.7378198"
       transform="matrix(0.89112711,0.45375376,0,1,0,0)" />
    <ellipse
       transform="matrix(0.89112711,0.45375376,0,1,0,0)"
       ry="2.7108133"
       rx="3.0420053"
       cy="225.8098"
       cx="-106.67174"
       id="ellipse842"
       style="opacity:1;fill:#e6e6e6;fill-opacity:1;stroke:none;stroke-width:5.84884882;stroke-linecap:square;stroke-miterlimit:4;stroke-dasharray:none;stroke-opacity:1;paint-order:fill markers stroke" />
    <path
       style="opacity:1;fill:#cccccc;fill-opacity:1;stroke:none;stroke-width:4.32441568;stroke-linecap:square;stroke-miterlimit:4;stroke-dasharray:none;stroke-opacity:1;paint-order:fill markers stroke"
       d="m -90.179955,177.57043 16.985442,9.80655 v 1.63442 l -16.985442,-9.80655 z"
       id="rect854"
       inkscape:connector-curvature="0"
       sodipodi:nodetypes="ccccc" />
    <path
       sodipodi:nodetypes="ccccc"
       inkscape:connector-curvature="0"
       id="path857"
       d="m -97.955977,184.56908 10.606927,6.07674 v 1.63443 l -10.606927,-6.07674 z"
       style="opacity:1;fill:#cccccc;fill-opacity:1;stroke:none;stroke-width:4.32441568;stroke-linecap:square;stroke-miterlimit:4;stroke-dasharray:none;stroke-opacity:1;paint-order:fill markers stroke" />
    <path
       style="fill:#000000;fill-opacity:0.18090455;stroke:none;stroke-width:0.26458332px;stroke-linecap:butt;stroke-linejoin:miter;stroke-opacity:1"
       d="m 21.594505,207.5953 20.372916,-11.77396 -20.6375,-11.90625 z"
       id="path4594"
       inkscape:connector-curvature="0" />
    <path
       style="fill:#808080;stroke:none;stroke-width:0.43244156px;stroke-linecap:butt;stroke-linejoin:miter;stroke-opacity:1"
       d="m -34.977266,191.46304 56.618135,-32.6885 -63.695406,-36.77456 -56.618134,32.68849 z"
       id="path861"
       inkscape:connector-curvature="0" />
    <path
       style="fill:#ab00ab;fill-opacity:1;stroke:none;stroke-width:0.43244156px;stroke-linecap:butt;stroke-linejoin:miter;stroke-opacity:1"
       d="m 21.640869,158.77454 v 49.03275 l -56.618135,32.68849 v -49.03274 z"
       id="path863"
       inkscape:connector-curvature="0"
       sodipodi:nodetypes="ccccc" />
    <path
       sodipodi:nodetypes="ccccc"
       inkscape:connector-curvature="0"
       id="path971"
       d="m -18.800657,188.66117 29.926726,-17.2782 2e-6,60.4737 -29.926727,17.27821 z"
       style="fill:#e900e9;fill-opacity:1;stroke:none;stroke-width:0.4571524px;stroke-linecap:butt;stroke-linejoin:miter;stroke-opacity:1" />
    <path
       style="fill:#e6e6e6;stroke:none;stroke-width:0.43244156px;stroke-linecap:butt;stroke-linejoin:miter;stroke-opacity:1"
       d="m -17.991829,189.82861 28.309071,-16.34424 10e-7,57.20486 -28.309071,16.34426 z"
       id="path865"
       inkscape:connector-curvature="0"
       sodipodi:nodetypes="ccccc" />
    <path
       sodipodi:nodetypes="ccccc"
       inkscape:connector-curvature="0"
       id="path869"
       d="m -90.179955,177.57043 16.985442,9.80655 v 1.63442 l -16.985442,-9.80655 z"
       style="opacity:1;fill:#cccccc;fill-opacity:1;stroke:none;stroke-width:4.32441568;stroke-linecap:square;stroke-miterlimit:4;stroke-dasharray:none;stroke-opacity:1;paint-order:fill markers stroke" />
    <path
       style="opacity:1;fill:#cccccc;fill-opacity:1;stroke:none;stroke-width:4.32441568;stroke-linecap:square;stroke-miterlimit:4;stroke-dasharray:none;stroke-opacity:1;paint-order:fill markers stroke"
       d="m -97.955977,187.83793 27.592371,15.88329 v 1.63443 l -27.592371,-15.88329 z"
       id="path871"
       inkscape:connector-curvature="0"
       sodipodi:nodetypes="ccccc" />
    <path
       sodipodi:nodetypes="ccccc"
       inkscape:connector-curvature="0"
       id="path873"
       d="m -97.955977,191.10678 27.592371,15.8833 v 1.63442 l -27.592371,-15.88329 z"
       style="opacity:1;fill:#cccccc;fill-opacity:1;stroke:none;stroke-width:4.32441568;stroke-linecap:square;stroke-miterlimit:4;stroke-dasharray:none;stroke-opacity:1;paint-order:fill markers stroke" />
    <path
       style="opacity:1;fill:#cccccc;fill-opacity:1;stroke:none;stroke-width:4.32441568;stroke-linecap:square;stroke-miterlimit:4;stroke-dasharray:none;stroke-opacity:1;paint-order:fill markers stroke"
       d="m -97.955977,194.37563 27.592371,15.88329 v 1.63443 l -27.592371,-15.8833 z"
       id="path875"
       inkscape:connector-curvature="0"
       sodipodi:nodetypes="ccccc" />
    <ellipse
       transform="matrix(0.89112711,0.45375376,0,1,0,0)"
       ry="1.7378198"
       rx="1.9501369"
       cy="219.26141"
       cx="-52.927536"
       id="ellipse877"
       style="opacity:1;fill:#e6e6e6;fill-opacity:1;stroke:none;stroke-width:3.74951863;stroke-linecap:square;stroke-miterlimit:4;stroke-dasharray:none;stroke-opacity:1;paint-order:fill markers stroke" />
    <ellipse
       style="opacity:1;fill:#b3b3b3;fill-opacity:1;stroke:none;stroke-width:16.53691483;stroke-linecap:square;stroke-miterlimit:4;stroke-dasharray:none;stroke-opacity:1;paint-order:fill markers stroke"
       id="ellipse879"
       cx="-65.452187"
       cy="245.73772"
       rx="8.6009035"
       ry="7.6644979"
       transform="matrix(0.89112711,0.45375376,0,1,0,0)" />
    <path
       style="fill:#00cdcd;fill-opacity:1;stroke:none;stroke-width:0.43244156px;stroke-linecap:butt;stroke-linejoin:miter;stroke-opacity:1"
       d="m -17.991826,189.82861 28.309069,-16.34424 v 4.90327 l -28.309069,16.34424 z"
       id="path881"
       inkscape:connector-curvature="0" />
    <path
       style="fill:#ffffff;stroke:none;stroke-width:0.43244156px;stroke-linecap:butt;stroke-linejoin:miter;stroke-opacity:1"
       d="M -15.160921,198.00074 7.4863342,184.92533 v 13.07541 l -22.6472552,13.0754 z"
       id="path883"
       inkscape:connector-curvature="0" />
    <path
       style="fill:#ffffff;stroke:none;stroke-width:0.43244156px;stroke-linecap:butt;stroke-linejoin:miter;stroke-opacity:1"
       d="m -16.576377,191.14272 2.830911,-1.63443 v 0 l 0.0083,0.72255 -2.790264,1.56714 z"
       id="path889"
       inkscape:connector-curvature="0" />
    <path
       inkscape:connector-curvature="0"
       id="path891"
       d="m -16.576377,189.69026 2.830911,-1.63442 v 0 l 0.0083,0.72254 -2.790264,1.56714 z"
       style="fill:#ffffff;stroke:none;stroke-width:0.43244156px;stroke-linecap:butt;stroke-linejoin:miter;stroke-opacity:1" />
    <path
       style="fill:#ffffff;stroke:none;stroke-width:0.43244156px;stroke-linecap:butt;stroke-linejoin:miter;stroke-opacity:1"
       d="m -16.538154,192.40407 2.830911,-1.63442 v 0 l 0.0083,0.72255 -2.790264,1.56713 z"
       id="path893"
       inkscape:connector-curvature="0" />
    <ellipse
       transform="matrix(-0.89112711,0.45375376,0,1,0,0)"
       ry="1.7378198"
       rx="1.9501369"
       cy="181.55627"
       cx="-8.5805101"
       id="ellipse897"
       style="opacity:1;fill:#e6e6e6;fill-opacity:1;stroke:none;stroke-width:3.74951863;stroke-linecap:square;stroke-miterlimit:4;stroke-dasharray:none;stroke-opacity:1;paint-order:fill markers stroke" />
    <path
       inkscape:connector-curvature="0"
       id="path899"
       d="m -15.084475,213.67208 22.6472542,-13.0754 v 13.0754 l -22.6472542,13.07539 z"
       style="fill:#ffffff;stroke:none;stroke-width:0.43244156px;stroke-linecap:butt;stroke-linejoin:miter;stroke-opacity:1" />
    <path
       style="fill:#ffffff;stroke:none;stroke-width:0.43244156px;stroke-linecap:butt;stroke-linejoin:miter;stroke-opacity:1"
       d="M -15.160921,229.6492 7.4863342,216.5738 v 13.0754 l -22.6472552,13.0754 z"
       id="path901"
       inkscape:connector-curvature="0" />
    <path
       style="fill:#000000;stroke:none;stroke-width:0.43244156px;stroke-linecap:butt;stroke-linejoin:miter;stroke-opacity:1"
       d="m -42.054537,121.99998 -2.830904,1.63443 63.695402,36.77455 2.830908,-1.63442 z"
       id="path903"
       inkscape:connector-curvature="0"
       sodipodi:nodetypes="ccccc" />
    <ellipse
       style="opacity:1;fill:#ff0000;fill-opacity:1;stroke:none;stroke-width:2.70631742;stroke-linecap:square;stroke-miterlimit:4;stroke-dasharray:none;stroke-opacity:1;paint-order:fill markers stroke"
       id="path905"
       cx="16.894339"
       cy="157.71994"
       rx="1.3287343"
       ry="0.7671451" />
    <ellipse
       ry="0.7671451"
       rx="1.3287343"
       cy="156.26747"
       cx="14.295193"
       id="ellipse907"
       style="opacity:1;fill:#ffff00;fill-opacity:1;stroke:none;stroke-width:2.70631742;stroke-linecap:square;stroke-miterlimit:4;stroke-dasharray:none;stroke-opacity:1;paint-order:fill markers stroke" />
    <ellipse
       style="opacity:1;fill:#00ff00;fill-opacity:1;stroke:none;stroke-width:2.70631742;stroke-linecap:square;stroke-miterlimit:4;stroke-dasharray:none;stroke-opacity:1;paint-order:fill markers stroke"
       id="ellipse909"
       cx="11.696045"
       cy="154.73857"
       rx="1.3287343"
       ry="0.7671451" />
    <path
       style="fill:#333333;stroke:none;stroke-width:0.43244156px;stroke-linecap:butt;stroke-linejoin:miter;stroke-opacity:1"
       d="m -37.808177,127.72047 -53.787223,31.05407 -7.077271,-4.08607 53.78723,-31.05406 z"
       id="path911"
       inkscape:connector-curvature="0" />
    <path
       style="fill:#000000;stroke:none;stroke-width:0.43244156px;stroke-linecap:butt;stroke-linejoin:miter;stroke-opacity:1"
       d="m -77.440872,150.60241 56.618136,32.68851 -14.15453,8.17212 -56.618134,-32.6885 z"
       id="path913"
       inkscape:connector-curvature="0" />
    <path
       style="fill:#00ff00;stroke:#000000;stroke-width:0.43244156px;stroke-linecap:butt;stroke-linejoin:miter;stroke-opacity:1"
       d="m -77.440872,152.23684 -2.830905,1.63443 15.569986,8.98933 2.830905,-1.63442 z"
       id="path915"
       inkscape:connector-curvature="0" />
    <path
       style="fill:#00ff00;stroke:none;stroke-width:0.43244156px;stroke-linecap:butt;stroke-linejoin:miter;stroke-opacity:1"
       d="m -39.223631,131.80653 7.07727,4.08606 -1.415455,0.81721 -7.077264,-4.08606 z"
       id="path917"
       inkscape:connector-curvature="0" />
    <path
       style="fill:#ff00ff;stroke:none;stroke-width:0.43244156px;stroke-linecap:butt;stroke-linejoin:miter;stroke-opacity:1"
       d="m -32.146361,137.52702 8.49272,4.90327 1.415455,-0.81721 -8.49272,-4.90328 z"
       id="path919"
       inkscape:connector-curvature="0" />
    <path
       inkscape:connector-curvature="0"
       id="path921"
       d="m -40.639084,135.89259 16.98544,9.80655 1.415455,-0.81722 -16.98544,-9.80654 z"
       style="fill:#ff00ff;stroke:none;stroke-width:0.43244156px;stroke-linecap:butt;stroke-linejoin:miter;stroke-opacity:1"
       sodipodi:nodetypes="ccccc" />
    <path
       sodipodi:nodetypes="ccccc"
       style="fill:#ff00ff;stroke:none;stroke-width:0.43244156px;stroke-linecap:butt;stroke-linejoin:miter;stroke-opacity:1"
       d="m -40.639084,135.89259 16.98544,9.80655 1.415455,-0.81722 -16.98544,-9.80654 z"
       id="path923"
       inkscape:connector-curvature="0" />
    <path
       inkscape:connector-curvature="0"
       id="path925"
       d="m -43.469992,137.52702 16.985441,9.80655 1.415454,-0.81722 -16.98544,-9.80655 z"
       style="fill:#ff00ff;stroke:none;stroke-width:0.43244156px;stroke-linecap:butt;stroke-linejoin:miter;stroke-opacity:1"
       sodipodi:nodetypes="ccccc" />
    <path
       sodipodi:nodetypes="ccccc"
       style="fill:#ff00ff;stroke:none;stroke-width:0.43244156px;stroke-linecap:butt;stroke-linejoin:miter;stroke-opacity:1"
       d="m -43.469992,140.79586 16.985441,9.80655 1.415454,-0.81721 -16.98544,-9.80655 z"
       id="path927"
       inkscape:connector-curvature="0" />
    <path
       sodipodi:nodetypes="ccccc"
       style="fill:#ff00ff;stroke:none;stroke-width:0.43244156px;stroke-linecap:butt;stroke-linejoin:miter;stroke-opacity:1"
       d="m -43.469992,137.52702 16.985441,9.80655 1.415454,-0.81722 -16.98544,-9.80655 z"
       id="path929"
       inkscape:connector-curvature="0" />
    <path
       inkscape:connector-curvature="0"
       id="path931"
       d="m -43.469992,144.06472 8.492721,4.90327 1.415455,-0.81721 -8.492721,-4.90327 z"
       style="fill:#ff00ff;stroke:none;stroke-width:0.43244156px;stroke-linecap:butt;stroke-linejoin:miter;stroke-opacity:1" />
    <path
       style="fill:#ff00ff;stroke:none;stroke-width:0.43244156px;stroke-linecap:butt;stroke-linejoin:miter;stroke-opacity:1"
       d="m -33.561815,149.7852 8.49272,4.90327 1.415454,-0.8172 -8.49272,-4.90328 z"
       id="path933"
       inkscape:connector-curvature="0" />
    <path
       style="fill:#ff00ff;stroke:none;stroke-width:0.43244156px;stroke-linecap:butt;stroke-linejoin:miter;stroke-opacity:1"
       d="m -46.300898,145.69914 8.49272,4.90327 1.415454,-0.81721 -8.49272,-4.90328 z"
       id="path935"
       inkscape:connector-curvature="0" />
    <path
       inkscape:connector-curvature="0"
       id="path937"
       d="m -50.547259,146.51635 8.49272,4.90328 1.415455,-0.81722 -8.49272,-4.90327 z"
       style="fill:#ff00ff;stroke:none;stroke-width:0.43244156px;stroke-linecap:butt;stroke-linejoin:miter;stroke-opacity:1" />
    <path
       inkscape:connector-curvature="0"
       id="path939"
       d="m -39.223631,151.41963 7.07727,4.08606 -1.415455,0.81721 -7.077264,-4.08606 z"
       style="fill:#00ff00;stroke:none;stroke-width:0.43244156px;stroke-linecap:butt;stroke-linejoin:miter;stroke-opacity:1" />
    <path
       style="fill:#00ff00;stroke:none;stroke-width:0.43244156px;stroke-linecap:butt;stroke-linejoin:miter;stroke-opacity:1"
       d="m -44.885444,151.41963 7.07727,4.08606 -1.415455,0.81721 -7.077265,-4.08606 z"
       id="path941"
       inkscape:connector-curvature="0" />
    <path
       inkscape:connector-curvature="0"
       id="path943"
       d="m -56.209073,149.7852 16.98544,9.80655 1.415455,-0.81721 -16.985441,-9.80655 z"
       style="fill:#ff00ff;stroke:none;stroke-width:0.43244156px;stroke-linecap:butt;stroke-linejoin:miter;stroke-opacity:1"
       sodipodi:nodetypes="ccccc" />
    <path
       sodipodi:nodetypes="ccccc"
       style="fill:#ff00ff;stroke:none;stroke-width:0.43244156px;stroke-linecap:butt;stroke-linejoin:miter;stroke-opacity:1"
       d="m -64.701793,148.15078 16.98544,9.80655 1.415455,-0.81721 -16.985441,-9.80655 z"
       id="path945"
       inkscape:connector-curvature="0" />
    <path
       inkscape:connector-curvature="0"
       id="path947"
       d="m -63.286339,150.60241 7.077271,4.08606 -1.415457,0.81722 -7.077263,-4.08606 z"
       style="fill:#00ff00;stroke:none;stroke-width:0.43244156px;stroke-linecap:butt;stroke-linejoin:miter;stroke-opacity:1" />
    <path
       inkscape:connector-curvature="0"
       id="path949"
       d="m -56.209072,156.3229 16.985441,9.80655 1.415454,-0.81721 -16.98544,-9.80655 z"
       style="fill:#ff00ff;stroke:none;stroke-width:0.43244156px;stroke-linecap:butt;stroke-linejoin:miter;stroke-opacity:1"
       sodipodi:nodetypes="ccccc" />
    <path
       style="fill:#b3b3b3;stroke:none;stroke-width:0.43244156px;stroke-linecap:butt;stroke-linejoin:miter;stroke-opacity:1"
       d="m -23.653641,181.65649 39.632695,-22.88195 2.830909,1.63442 -39.632699,22.88196 z"
       id="path955"
       inkscape:connector-curvature="0" />
    <path
       style="fill:#790079;fill-opacity:1;stroke:none;stroke-width:0.43244156px;stroke-linecap:butt;stroke-linejoin:miter;stroke-opacity:1"
       d="m -34.977266,191.46304 v 3.26884 l 56.618135,-31.05406 v -4.90328 z"
       id="path967"
       inkscape:connector-curvature="0" />
    <path
       style="fill:#e900e9;fill-opacity:1;stroke:none;stroke-width:0.43244156px;stroke-linecap:butt;stroke-linejoin:miter;stroke-opacity:1"
       d="m -34.977266,194.73188 -63.695405,-36.77455 v -3.26886 l 63.695405,36.77457 z"
       id="path969"
       inkscape:connector-curvature="0"
       sodipodi:nodetypes="ccccc" />
    <ellipse
       style="opacity:1;fill:#e900e9;fill-opacity:1;stroke:none;stroke-width:17.97830963;stroke-linecap:square;stroke-miterlimit:4;stroke-dasharray:none;stroke-opacity:1;paint-order:fill markers stroke"
       id="ellipse975"
       cx="-31.388426"
       cy="185.52695"
       rx="9.3505783"
       ry="8.3325539"
       transform="matrix(-0.89112711,0.45375376,0,1,0,0)" />
    <path
       style="fill:#e900e9;fill-opacity:1;stroke:none;stroke-width:0.43244156px;stroke-linecap:butt;stroke-linejoin:miter;stroke-opacity:1"
       d="m 24.471775,180.02206 v 13.07541 l -9.908172,12.25818 -4.24636,0.81721 v 1.63443 l 4.24636,-0.81721 11.323625,-13.07541 v -14.70982 z"
       id="path977"
       inkscape:connector-curvature="0" />
    <ellipse
       transform="matrix(-0.89112711,0.45375376,0,1,0,0)"
       ry="6.9700994"
       rx="7.8216672"
       cy="185.52695"
       cx="-31.388426"
       id="ellipse979"
       style="opacity:1;fill:#ffffff;fill-opacity:1;stroke:none;stroke-width:15.03867912;stroke-linecap:square;stroke-miterlimit:4;stroke-dasharray:none;stroke-opacity:1;paint-order:fill markers stroke" />
    <g
       aria-label="{}"
       transform="matrix(0.97259662,-0.68596315,0.04145737,0.99893599,0,0)"
       style="font-style:normal;font-variant:normal;font-weight:normal;font-stretch:normal;font-size:9.6080122px;line-height:1.25;font-family:'Courier 10 Pitch';-inkscape-font-specification:'Courier 10 Pitch';letter-spacing:0px;word-spacing:0px;fill:#e900e9;fill-opacity:1;stroke:none;stroke-width:0.36030045"
       id="text983">
      <path
         d="m 17.75877,187.55654 v 0.64374 c 0,1.02806 0.365104,1.54689 1.537282,1.54689 0.326672,0 0.499616,-0.15373 0.499616,-0.41315 0,-0.37471 -0.355496,-0.35549 -0.643736,-0.43236 -0.345889,-0.0961 -0.374713,-0.27863 -0.374713,-0.80707 v -0.46118 c 0,-0.97041 -0.172944,-1.42199 -0.970409,-1.5565 0.797465,-0.13451 0.970409,-0.5957 0.970409,-1.56611 v -0.46118 c 0,-0.51884 0.03843,-0.74943 0.393929,-0.81668 0.365104,-0.0673 0.62452,-0.0961 0.62452,-0.42276 0,-0.25941 -0.172944,-0.41314 -0.499616,-0.41314 -1.172178,0 -1.537282,0.52844 -1.537282,1.5565 v 0.63413 c 0,0.62452 -0.07686,0.90315 -0.614913,0.98001 -0.365104,0.048 -0.518833,0.20177 -0.518833,0.50923 0,0.30745 0.153729,0.46118 0.518833,0.50922 0.538049,0.0769 0.614913,0.34589 0.614913,0.97041 z"
         style="font-style:normal;font-variant:normal;font-weight:bold;font-stretch:normal;font-family:'Courier 10 Pitch';-inkscape-font-specification:'Courier 10 Pitch Bold';fill:#e900e9;fill-opacity:1;stroke-width:0.36030045"
         id="path892"
         inkscape:connector-curvature="0" />
      <path
         d="m 24.441743,184.58767 v -0.63413 c 0,-1.02806 -0.365105,-1.5565 -1.537282,-1.5565 -0.326672,0 -0.499617,0.15373 -0.499617,0.41314 0,0.37472 0.345889,0.3555 0.634129,0.43236 0.345889,0.0961 0.384321,0.27864 0.384321,0.80708 v 0.46118 c 0,0.97041 0.172944,1.4316 0.970409,1.56611 -0.797465,0.13451 -0.970409,0.58609 -0.970409,1.5565 v 0.46118 c 0,0.51883 -0.03843,0.74942 -0.393929,0.81668 -0.365104,0.0673 -0.624521,0.0961 -0.624521,0.42275 0,0.25942 0.172945,0.41315 0.499617,0.41315 1.172177,0 1.537282,-0.51883 1.537282,-1.54689 v -0.64374 c 0,-0.62452 0.07686,-0.89354 0.614913,-0.97041 0.365104,-0.048 0.509224,-0.20177 0.509224,-0.50922 0,-0.30746 -0.14412,-0.46119 -0.509224,-0.50923 -0.538049,-0.0769 -0.614913,-0.35549 -0.614913,-0.98001 z"
         style="font-style:normal;font-variant:normal;font-weight:bold;font-stretch:normal;font-family:'Courier 10 Pitch';-inkscape-font-specification:'Courier 10 Pitch Bold';fill:#e900e9;fill-opacity:1;stroke-width:0.36030045"
         id="path894"
         inkscape:connector-curvature="0" />
    </g>
    <ellipse
       transform="matrix(0.89112711,0.45375376,0,1,0,0)"
       ry="10.626412"
       rx="11.924688"
       cy="208.23654"
       cx="-139.0186"
       id="ellipse987"
       style="opacity:1;fill:#e900e9;fill-opacity:1;stroke:none;stroke-width:22.92753983;stroke-linecap:square;stroke-miterlimit:4;stroke-dasharray:none;stroke-opacity:1;paint-order:fill markers stroke" />
    <ellipse
       style="opacity:1;fill:#ffffff;fill-opacity:1;stroke:none;stroke-width:19.60172653;stroke-linecap:square;stroke-miterlimit:4;stroke-dasharray:none;stroke-opacity:1;paint-order:fill markers stroke"
       id="ellipse989"
       cx="-139.0186"
       cy="208.23654"
       rx="10.194921"
       ry="9.0849705"
       transform="matrix(0.89112711,0.45375376,0,1,0,0)" />
    <g
       aria-label="&lt;/&gt; "
       transform="skewY(27.956668)"
       style="font-style:normal;font-weight:normal;font-size:8.85004807px;line-height:1.25;font-family:sans-serif;letter-spacing:0px;word-spacing:0px;fill:#e900e9;fill-opacity:1;stroke:none;stroke-width:0.33187678"
       id="text993">
      <path
         d="m -127.36854,212.67658 -2.74352,-1.2744 2.74352,-1.28326 c 0.2124,-0.0974 0.3186,-0.2124 0.3186,-0.41595 0,-0.2655 -0.1593,-0.46906 -0.39825,-0.46906 -0.0885,0 -0.18585,0.0354 -0.30975,0.0885 l -3.44267,1.61071 c -0.2655,0.1239 -0.39825,0.2478 -0.39825,0.46906 0,0.22125 0.13275,0.34515 0.39825,0.46905 l 3.44267,1.61071 c 0.1239,0.0531 0.22125,0.0885 0.30975,0.0885 0.23895,0 0.39825,-0.2124 0.39825,-0.4779 0,-0.20356 -0.1062,-0.31861 -0.3186,-0.41596 z"
         style="font-style:normal;font-variant:normal;font-weight:bold;font-stretch:normal;font-family:'Courier 10 Pitch';-inkscape-font-specification:'Courier 10 Pitch Bold';fill:#e900e9;fill-opacity:1;stroke-width:0.33187678"
         id="path884"
         inkscape:connector-curvature="0" />
      <path
         d="m -124.7882,214.17224 2.53111,-5.42508 c 0.0708,-0.1593 0.12391,-0.2832 0.12391,-0.4071 0,-0.27435 -0.28321,-0.43365 -0.50446,-0.43365 -0.1947,0 -0.3186,0.16815 -0.45135,0.4602 l -2.53111,5.41623 c -0.0708,0.1593 -0.1239,0.29205 -0.1239,0.41595 0,0.27435 0.2832,0.43365 0.50445,0.43365 0.1947,0 0.3186,-0.16815 0.45135,-0.4602 z"
         style="font-style:normal;font-variant:normal;font-weight:bold;font-stretch:normal;font-family:'Courier 10 Pitch';-inkscape-font-specification:'Courier 10 Pitch Bold';fill:#e900e9;fill-opacity:1;stroke-width:0.33187678"
         id="path886"
         inkscape:connector-curvature="0" />
      <path
         d="m -120.6414,210.11892 2.74352,1.28326 -2.74352,1.2744 c -0.2124,0.0974 -0.30975,0.2124 -0.30975,0.41596 0,0.2655 0.1593,0.4779 0.39825,0.4779 0.0885,0 0.177,-0.0354 0.3009,-0.0885 l 3.45152,-1.61071 c 0.2655,-0.1239 0.39825,-0.2478 0.39825,-0.46905 0,-0.22126 -0.13275,-0.34516 -0.39825,-0.46906 l -3.45152,-1.61071 c -0.1239,-0.0531 -0.2124,-0.0885 -0.3009,-0.0885 -0.23895,0 -0.39825,0.20356 -0.39825,0.46906 0,0.20355 0.0973,0.3186 0.30975,0.41595 z"
         style="font-style:normal;font-variant:normal;font-weight:bold;font-stretch:normal;font-family:'Courier 10 Pitch';-inkscape-font-specification:'Courier 10 Pitch Bold';fill:#e900e9;fill-opacity:1;stroke-width:0.33187678"
         id="path888"
         inkscape:connector-curvature="0" />
    </g>
    <path
       style="fill:#e900e9;fill-opacity:1;stroke:none;stroke-width:0.43244156px;stroke-linecap:butt;stroke-linejoin:miter;stroke-opacity:1"
       d="m -107.16539,190.64582 v 1.63443 l -4.24636,-0.81721 -14.15453,-11.44098 v -26.15079 l 1.41544,0.8172 v 24.51638 l 12.73909,10.62376 z"
       id="path995"
       inkscape:connector-curvature="0" />
  </g>
</svg>
